<svg width="562" height="511" viewBox="0 0 562 511" fill="none" xmlns="http://www.w3.org/2000/svg">
<rect x="312.053" y="11.7764" width="487.325" height="312.053" rx="20" transform="rotate(90 312.053 11.7764)" fill="#E29D47"/>
<rect x="115.323" y="185.57" width="140.098" height="96.9872" rx="10" transform="rotate(90 115.323 185.57)" fill="#EDBC4E"/>
<rect x="283.716" y="48.4934" width="414.464" height="158.32" rx="15" transform="rotate(90 283.716 48.4934)" fill="#EDBC4E"/>
<rect x="274.124" y="57.2988" width="396.932" height="140.028" rx="15" transform="rotate(90 274.124 57.2988)" fill="#FDF8F6"/>
<path d="M300.299 39.3597C300.291 28.2814 300.287 22.7422 302.451 18.4732C304.274 14.8742 307.144 11.9109 310.683 9.97261C314.88 7.67351 320.417 7.49979 331.489 7.15234L526.382 1.03702C538.042 0.671155 543.872 0.488224 548.335 2.6762C552.095 4.51925 555.181 7.49568 557.159 11.1859C559.507 15.5668 559.535 21.3995 559.592 33.065L561.743 476.435C561.8 488.316 561.829 494.256 559.466 498.703C557.475 502.448 554.346 505.463 550.53 507.313C545.998 509.51 540.063 509.261 528.194 508.763L331.459 500.511C320.51 500.051 315.035 499.822 310.888 497.512C307.39 495.565 304.558 492.614 302.756 489.039C300.62 484.8 300.616 479.321 300.608 468.362L300.299 39.3597Z" fill="#D9D9D9"/>
<path d="M306.189 43.1684C306.182 32.1171 306.178 26.5914 308.334 22.3286C310.152 18.7345 313.013 15.773 316.541 13.8318C320.727 11.5292 326.249 11.3414 337.294 10.9657L508.289 5.1489C519.979 4.75122 525.825 4.55238 530.3 6.73697C534.07 8.57708 537.166 11.556 539.15 15.2522C541.505 19.6404 541.531 25.489 541.583 37.1862L543.53 472.281C543.583 484.195 543.61 490.152 541.236 494.605C539.237 498.355 536.095 501.37 532.267 503.214C527.72 505.404 521.769 505.133 509.868 504.592L337.206 496.74C326.293 496.244 320.837 495.995 316.705 493.681C313.22 491.73 310.4 488.78 308.607 485.212C306.48 480.98 306.476 475.518 306.469 464.594L306.189 43.1684Z" fill="#2C2B33"/>
<line x1="140.906" y1="252" x2="140.906" y2="270" stroke="black" stroke-width="4"/>
<rect x="271.906" y="61" width="42" height="20" rx="5" transform="rotate(90 271.906 61)" fill="#D9D9D9"/>
<rect x="271.906" y="268" width="20" height="20" rx="5" transform="rotate(90 271.906 268)" fill="#D9D9D9"/>
<rect x="271.906" y="107" width="20" height="20" rx="5" transform="rotate(90 271.906 107)" fill="#D9D9D9"/>
<rect x="271.906" y="130" width="20" height="20" rx="5" transform="rotate(90 271.906 130)" fill="#D9D9D9"/>
<rect x="271.906" y="153" width="20" height="20" rx="5" transform="rotate(90 271.906 153)" fill="#D9D9D9"/>
<rect x="271.906" y="176" width="20" height="20" rx="5" transform="rotate(90 271.906 176)" fill="#D9D9D9"/>
<rect x="271.906" y="199" width="20" height="20" rx="5" transform="rotate(90 271.906 199)" fill="#D9D9D9"/>
<rect x="271.906" y="222" width="20" height="20" rx="5" transform="rotate(90 271.906 222)" fill="#D9D9D9"/>
<rect x="271.906" y="245" width="20" height="20" rx="5" transform="rotate(90 271.906 245)" fill="#D9D9D9"/>
<rect x="271.906" y="291" width="20" height="20" rx="5" transform="rotate(90 271.906 291)" fill="#D9D9D9"/>
<rect x="271.906" y="314" width="20" height="20" rx="5" transform="rotate(90 271.906 314)" fill="#D9D9D9"/>
<rect x="271.906" y="337" width="20" height="20" rx="5" transform="rotate(90 271.906 337)" fill="#D9D9D9"/>
<rect x="271.906" y="406" width="20" height="20" rx="5" transform="rotate(90 271.906 406)" fill="#D9D9D9"/>
<rect x="271.906" y="360" width="20" height="20" rx="5" transform="rotate(90 271.906 360)" fill="#D9D9D9"/>
<rect x="271.906" y="383" width="20" height="20" rx="5" transform="rotate(90 271.906 383)" fill="#D9D9D9"/>
<rect x="271.906" y="429" width="20" height="20" rx="5" transform="rotate(90 271.906 429)" fill="#D9D9D9"/>
<rect x="247.906" y="61" width="20" height="20" rx="5" transform="rotate(90 247.906 61)" fill="#D9D9D9"/>
<rect x="247.906" y="268" width="20" height="20" rx="5" transform="rotate(90 247.906 268)" fill="#D9D9D9"/>
<rect x="247.906" y="84" width="20" height="20" rx="5" transform="rotate(90 247.906 84)" fill="#D9D9D9"/>
<rect x="247.906" y="107" width="20" height="20" rx="5" transform="rotate(90 247.906 107)" fill="#D9D9D9"/>
<rect x="247.906" y="130" width="20" height="20" rx="5" transform="rotate(90 247.906 130)" fill="#D9D9D9"/>
<rect x="247.906" y="153" width="20" height="20" rx="5" transform="rotate(90 247.906 153)" fill="#D9D9D9"/>
<rect x="247.906" y="176" width="20" height="20" rx="5" transform="rotate(90 247.906 176)" fill="#D9D9D9"/>
<rect x="247.906" y="199" width="20" height="20" rx="5" transform="rotate(90 247.906 199)" fill="#D9D9D9"/>
<rect x="247.906" y="222" width="20" height="20" rx="5" transform="rotate(90 247.906 222)" fill="#D9D9D9"/>
<rect x="247.906" y="245" width="20" height="20" rx="5" transform="rotate(90 247.906 245)" fill="#D9D9D9"/>
<rect x="247.906" y="291" width="20" height="20" rx="5" transform="rotate(90 247.906 291)" fill="#D9D9D9"/>
<rect x="247.906" y="314" width="43" height="20" rx="5" transform="rotate(90 247.906 314)" fill="#D9D9D9"/>
<rect x="247.906" y="406" width="20" height="20" rx="5" transform="rotate(90 247.906 406)" fill="#D9D9D9"/>
<rect x="247.906" y="360" width="20" height="20" rx="5" transform="rotate(90 247.906 360)" fill="#D9D9D9"/>
<rect x="247.906" y="383" width="20" height="20" rx="5" transform="rotate(90 247.906 383)" fill="#D9D9D9"/>
<rect x="247.906" y="429" width="20" height="20" rx="5" transform="rotate(90 247.906 429)" fill="#D9D9D9"/>
<rect x="223.906" y="61" width="20" height="20" rx="5" transform="rotate(90 223.906 61)" fill="#D9D9D9"/>
<rect x="223.906" y="268" width="20" height="20" rx="5" transform="rotate(90 223.906 268)" fill="#D9D9D9"/>
<rect x="223.906" y="84" width="20" height="20" rx="5" transform="rotate(90 223.906 84)" fill="#D9D9D9"/>
<rect x="223.906" y="107" width="20" height="20" rx="5" transform="rotate(90 223.906 107)" fill="#D9D9D9"/>
<rect x="223.906" y="130" width="20" height="20" rx="5" transform="rotate(90 223.906 130)" fill="#D9D9D9"/>
<rect x="223.906" y="153" width="20" height="20" rx="5" transform="rotate(90 223.906 153)" fill="#D9D9D9"/>
<rect x="223.906" y="176" width="20" height="20" rx="5" transform="rotate(90 223.906 176)" fill="#D9D9D9"/>
<rect x="223.906" y="199" width="20" height="20" rx="5" transform="rotate(90 223.906 199)" fill="#D9D9D9"/>
<rect x="223.906" y="222" width="20" height="20" rx="5" transform="rotate(90 223.906 222)" fill="#D9D9D9"/>
<rect x="223.906" y="245" width="20" height="20" rx="5" transform="rotate(90 223.906 245)" fill="#D9D9D9"/>
<rect x="223.906" y="291" width="20" height="20" rx="5" transform="rotate(90 223.906 291)" fill="#D9D9D9"/>
<rect x="223.906" y="314" width="43" height="20" rx="5" transform="rotate(90 223.906 314)" fill="#D9D9D9"/>
<rect x="223.906" y="406" width="20" height="20" rx="5" transform="rotate(90 223.906 406)" fill="#D9D9D9"/>
<rect x="223.906" y="360" width="20" height="20" rx="5" transform="rotate(90 223.906 360)" fill="#D9D9D9"/>
<rect x="223.906" y="383" width="20" height="20" rx="5" transform="rotate(90 223.906 383)" fill="#D9D9D9"/>
<rect x="223.906" y="429" width="20" height="20" rx="5" transform="rotate(90 223.906 429)" fill="#D9D9D9"/>
<rect x="199.906" y="61" width="42" height="20" rx="5" transform="rotate(90 199.906 61)" fill="#D9D9D9"/>
<rect x="199.906" y="268" width="20" height="20" rx="5" transform="rotate(90 199.906 268)" fill="#D9D9D9"/>
<rect x="199.906" y="107" width="20" height="20" rx="5" transform="rotate(90 199.906 107)" fill="#D9D9D9"/>
<rect x="199.906" y="130" width="20" height="20" rx="5" transform="rotate(90 199.906 130)" fill="#D9D9D9"/>
<rect x="199.906" y="153" width="20" height="20" rx="5" transform="rotate(90 199.906 153)" fill="#D9D9D9"/>
<rect x="199.906" y="176" width="20" height="20" rx="5" transform="rotate(90 199.906 176)" fill="#D9D9D9"/>
<rect x="199.906" y="199" width="20" height="20" rx="5" transform="rotate(90 199.906 199)" fill="#D9D9D9"/>
<rect x="199.906" y="222" width="20" height="20" rx="5" transform="rotate(90 199.906 222)" fill="#D9D9D9"/>
<rect x="199.906" y="245" width="20" height="20" rx="5" transform="rotate(90 199.906 245)" fill="#D9D9D9"/>
<rect x="199.906" y="291" width="20" height="20" rx="5" transform="rotate(90 199.906 291)" fill="#D9D9D9"/>
<rect x="199.906" y="337" width="20" height="20" rx="5" transform="rotate(90 199.906 337)" fill="#D9D9D9"/>
<rect x="199.906" y="406" width="20" height="20" rx="5" transform="rotate(90 199.906 406)" fill="#D9D9D9"/>
<rect x="199.906" y="383" width="20" height="20" rx="5" transform="rotate(90 199.906 383)" fill="#D9D9D9"/>
<rect x="199.906" y="429" width="20" height="20" rx="5" transform="rotate(90 199.906 429)" fill="#D9D9D9"/>
<rect x="176.906" y="61" width="66" height="20" rx="5" transform="rotate(90 176.906 61)" fill="#D9D9D9"/>
<rect x="176.906" y="268" width="20" height="20" rx="5" transform="rotate(90 176.906 268)" fill="#D9D9D9"/>
<rect x="153.906" y="200" width="119" height="15" rx="5" transform="rotate(90 153.906 200)" fill="#D9D9D9"/>
<rect x="153.906" y="324" width="56" height="15" rx="5" transform="rotate(90 153.906 324)" fill="#D9D9D9"/>
<rect x="153.906" y="383" width="60" height="15" rx="5" transform="rotate(90 153.906 383)" fill="#D9D9D9"/>
<rect x="153.906" y="64" width="66" height="15" rx="5" transform="rotate(90 153.906 64)" fill="#D9D9D9"/>
<rect x="153.906" y="133" width="34" height="15" rx="5" transform="rotate(90 153.906 133)" fill="#D9D9D9"/>
<rect x="153.906" y="170" width="26" height="15" rx="5" transform="rotate(90 153.906 170)" fill="#D9D9D9"/>
<rect x="176.906" y="130" width="20" height="20" rx="5" transform="rotate(90 176.906 130)" fill="#D9D9D9"/>
<rect x="176.906" y="153" width="20" height="20" rx="5" transform="rotate(90 176.906 153)" fill="#D9D9D9"/>
<rect x="176.906" y="176" width="20" height="20" rx="5" transform="rotate(90 176.906 176)" fill="#D9D9D9"/>
<rect x="176.906" y="199" width="20" height="20" rx="5" transform="rotate(90 176.906 199)" fill="#D9D9D9"/>
<rect x="176.906" y="222" width="20" height="20" rx="5" transform="rotate(90 176.906 222)" fill="#D9D9D9"/>
<rect x="176.906" y="245" width="20" height="20" rx="5" transform="rotate(90 176.906 245)" fill="#D9D9D9"/>
<rect x="176.906" y="291" width="20" height="20" rx="5" transform="rotate(90 176.906 291)" fill="#D9D9D9"/>
<rect x="176.906" y="314" width="20" height="20" rx="5" transform="rotate(90 176.906 314)" fill="#D9D9D9"/>
<rect x="176.906" y="337" width="20" height="20" rx="5" transform="rotate(90 176.906 337)" fill="#D9D9D9"/>
<rect x="176.906" y="406" width="20" height="20" rx="5" transform="rotate(90 176.906 406)" fill="#D9D9D9"/>
<rect x="176.906" y="360" width="20" height="20" rx="5" transform="rotate(90 176.906 360)" fill="#D9D9D9"/>
<rect x="176.906" y="383" width="20" height="20" rx="5" transform="rotate(90 176.906 383)" fill="#D9D9D9"/>
<rect x="176.906" y="429" width="20" height="20" rx="5" transform="rotate(90 176.906 429)" fill="#D9D9D9"/>
</svg>
