<svg width="790" height="882" viewBox="0 0 790 882" fill="none" xmlns="http://www.w3.org/2000/svg">
<rect y="31" width="325" height="120" fill="#60BA81"/>
<rect y="204" width="424" height="119" fill="#497B98"/>
<rect y="376" width="562" height="120" fill="#CA3450"/>
<rect y="548" width="424" height="122" fill="#497B98"/>
<rect y="721" width="325" height="120" fill="#60BA81"/>
<path d="M490.648 317.954L571.5 235.954L652.352 317.954H490.648Z" fill="#D49886" stroke="black" stroke-width="3"/>
<path d="M652.352 197.046L571.5 279.046L490.648 197.046L652.352 197.046Z" fill="#D49886" stroke="black" stroke-width="3"/>
<path d="M547.441 257.923L492.36 314.69L492.36 201.156L547.441 257.923Z" fill="#D49886"/>
<path d="M595.559 257.923L650.64 314.69L650.64 201.156L595.559 257.923Z" fill="#D49886"/>
<path d="M490.662 675.112L571.5 593.579L652.338 675.112H490.662Z" fill="#D49886" stroke="black" stroke-width="3"/>
<path d="M652.338 554.888L571.5 636.421L490.662 554.888L652.338 554.888Z" fill="#D49886" stroke="black" stroke-width="3"/>
<path d="M547.441 615.42L492.36 671.874L492.36 558.967L547.441 615.42Z" fill="#D49886"/>
<path d="M595.559 615.42L650.64 671.874L650.64 558.967L595.559 615.42Z" fill="#D49886"/>
<path d="M612.568 494.954L693 412.959L773.432 494.954H612.568Z" fill="#FDF4E4" stroke="black" stroke-width="3"/>
<path d="M773.432 374.046L693 456.041L612.568 374.046L773.432 374.046Z" fill="#FDF4E4" stroke="black" stroke-width="3"/>
<path d="M669.065 434.923L614.266 491.69L614.266 378.156L669.065 434.923Z" fill="#FDF4E4"/>
<path d="M716.935 434.923L771.734 491.69L771.734 378.156L716.935 434.923Z" fill="#FDF4E4"/>
<path d="M382.728 150.954L464 68.9483L545.272 150.954H382.728Z" fill="#E2BB49" stroke="black" stroke-width="3"/>
<path d="M545.272 30.0459L464 112.052L382.728 30.046L545.272 30.0459Z" fill="#E2BB49" stroke="black" stroke-width="3"/>
<path d="M439.818 90.9231L384.455 147.69L384.455 34.1559L439.818 90.9231Z" fill="#E2BB49"/>
<path d="M488.182 90.9231L543.545 147.69L543.545 34.1559L488.182 90.9231Z" fill="#E2BB49"/>
<path d="M382.742 852.112L464 770.573L545.258 852.112H382.742Z" fill="#E2BB49" stroke="black" stroke-width="3"/>
<path d="M545.258 731.888L464 813.427L382.742 731.888L545.258 731.888Z" fill="#E2BB49" stroke="black" stroke-width="3"/>
<path d="M439.818 792.42L384.455 848.874L384.455 735.967L439.818 792.42Z" fill="#E2BB49"/>
<path d="M488.182 792.42L543.545 848.874L543.545 735.967L488.182 792.42Z" fill="#E2BB49"/>
<g filter="url(#filter0_d_1961_3363)">
<path d="M179.52 423.96H167.744V411.672C167.744 410.136 167.488 409.155 166.976 408.728C166.549 408.216 165.568 407.96 164.032 407.96H157.504C155.968 407.96 154.944 408.216 154.432 408.728C153.92 409.155 153.664 410.136 153.664 411.672V466.328C153.664 467.864 153.92 468.888 154.432 469.4C154.944 469.827 155.968 470.04 157.504 470.04H164.032C165.568 470.04 166.549 469.827 166.976 469.4C167.488 468.888 167.744 467.864 167.744 466.328V454.168H179.52V467.736C179.52 475.331 175.509 479.128 167.488 479.128H153.92C145.984 479.128 142.016 475.331 142.016 467.736V410.136C142.016 402.627 145.984 398.872 153.92 398.872H167.488C175.509 398.872 179.52 402.627 179.52 410.136V423.96ZM213.818 416.536H227.514C235.45 416.536 239.418 420.333 239.418 427.928V467.736C239.418 475.245 235.45 479 227.514 479H213.818C205.967 479 202.042 475.245 202.042 467.736V427.928C202.042 420.333 205.967 416.536 213.818 416.536ZM228.026 466.072V429.464C228.026 427.928 227.77 426.904 227.258 426.392C226.746 425.88 225.722 425.624 224.186 425.624H217.146C215.61 425.624 214.586 425.88 214.074 426.392C213.647 426.904 213.434 427.928 213.434 429.464V466.072C213.434 467.608 213.647 468.632 214.074 469.144C214.586 469.656 215.61 469.912 217.146 469.912H224.186C225.722 469.912 226.746 469.656 227.258 469.144C227.77 468.632 228.026 467.608 228.026 466.072ZM282.313 416.536H286.793C294.558 416.536 298.441 420.333 298.441 427.928V479H286.921V429.592C286.921 428.056 286.665 427.075 286.153 426.648C285.641 426.136 284.617 425.88 283.081 425.88H278.601C277.065 425.88 275.956 426.221 275.273 426.904C274.676 427.587 274.377 428.739 274.377 430.36V479H262.857V416.536H274.377V421.528C275.486 418.2 278.132 416.536 282.313 416.536ZM343.527 425.88H334.951V465.432C334.951 466.968 335.164 467.992 335.591 468.504C336.103 468.931 337.127 469.144 338.663 469.144H343.527V479H335.335C327.314 479 323.303 475.245 323.303 467.736V425.88H317.415V416.536H323.303V405.912H334.951V416.536H343.527V425.88ZM386.503 416.536H398.023V479H386.503V474.008C385.394 477.336 382.748 479 378.567 479H373.959C366.279 479 362.439 475.245 362.439 467.736V427.928C362.439 420.333 366.279 416.536 373.959 416.536H378.567C382.748 416.536 385.394 418.2 386.503 421.528V416.536ZM377.799 469.656H382.279C383.815 469.656 384.882 469.315 385.479 468.632C386.162 467.949 386.503 466.797 386.503 465.176V430.36C386.503 428.739 386.162 427.587 385.479 426.904C384.882 426.221 383.815 425.88 382.279 425.88H377.799C376.263 425.88 375.239 426.136 374.727 426.648C374.215 427.075 373.959 428.056 373.959 429.592V465.944C373.959 467.48 374.215 468.504 374.727 469.016C375.239 469.443 376.263 469.656 377.799 469.656ZM457.46 436.248H446.068V429.592C446.068 428.056 445.812 427.075 445.3 426.648C444.788 426.136 443.764 425.88 442.228 425.88H436.724C435.188 425.88 434.164 426.136 433.652 426.648C433.14 427.075 432.884 428.056 432.884 429.592V465.944C432.884 467.48 433.14 468.504 433.652 469.016C434.164 469.443 435.188 469.656 436.724 469.656H442.228C443.764 469.656 444.788 469.443 445.3 469.016C445.812 468.504 446.068 467.48 446.068 465.944V459.288H457.46V467.736C457.46 475.245 453.449 479 445.428 479H433.268C425.332 479 421.364 475.245 421.364 467.736V427.928C421.364 420.333 425.332 416.536 433.268 416.536H445.428C453.449 416.536 457.46 420.333 457.46 427.928V436.248ZM500.927 425.88H492.351V465.432C492.351 466.968 492.564 467.992 492.991 468.504C493.503 468.931 494.527 469.144 496.063 469.144H500.927V479H492.735C484.714 479 480.703 475.245 480.703 467.736V425.88H474.815V416.536H480.703V405.912H492.351V416.536H500.927V425.88Z" fill="#F6EFE9"/>
</g>
<defs>
<filter id="filter0_d_1961_3363" x="132.016" y="392.872" width="378.911" height="100.256" filterUnits="userSpaceOnUse" color-interpolation-filters="sRGB">
<feFlood flood-opacity="0" result="BackgroundImageFix"/>
<feColorMatrix in="SourceAlpha" type="matrix" values="0 0 0 0 0 0 0 0 0 0 0 0 0 0 0 0 0 0 127 0" result="hardAlpha"/>
<feOffset dy="4"/>
<feGaussianBlur stdDeviation="5"/>
<feComposite in2="hardAlpha" operator="out"/>
<feColorMatrix type="matrix" values="0 0 0 0 0 0 0 0 0 0 0 0 0 0 0 0 0 0 0.25 0"/>
<feBlend mode="normal" in2="BackgroundImageFix" result="effect1_dropShadow_1961_3363"/>
<feBlend mode="normal" in="SourceGraphic" in2="effect1_dropShadow_1961_3363" result="shape"/>
</filter>
</defs>
</svg>
