<svg width="144" height="412" viewBox="0 0 144 412" fill="none" xmlns="http://www.w3.org/2000/svg">
<rect x="-82" y="6.02051" width="89.8373" height="48.9802" fill="#60BA81"/>
<rect x="-82" y="94.3867" width="117.36" height="48.2904" fill="#497B98"/>
<rect x="-82" y="182.829" width="155.959" height="48.1244" fill="#CA3450"/>
<rect x="-82" y="274.428" width="117.36" height="49.6701" fill="#497B98"/>
<rect x="-82" y="356.796" width="89.8373" height="48.9802" fill="#60BA81"/>
<path d="M19.7915 51.2218L46 24.3207L72.2085 51.2218H19.7915Z" fill="#E2BB49" stroke="black" stroke-width="2"/>
<path d="M72.2085 10.7782L46 37.6793L19.7915 10.7782L72.2085 10.7782Z" fill="#E2BB49" stroke="black" stroke-width="2"/>
<path d="M37.8574 31.1447L19.2146 50.5898L19.2146 11.6996L37.8574 31.1447Z" fill="#E2BB49"/>
<path d="M54.1426 31.1447L72.7854 50.5898L72.7854 11.6996L54.1426 31.1447Z" fill="#E2BB49"/>
<path d="M47.7915 139.222L74 112.321L100.208 139.222H47.7915Z" fill="#D49886" stroke="black" stroke-width="2"/>
<path d="M100.208 98.7782L74 125.679L47.7915 98.7782L100.208 98.7782Z" fill="#D49886" stroke="black" stroke-width="2"/>
<path d="M65.8574 119.145L47.2146 138.59L47.2146 99.6996L65.8574 119.145Z" fill="#D49886"/>
<path d="M82.1426 119.145L100.785 138.59L100.785 99.6996L82.1426 119.145Z" fill="#D49886"/>
<path d="M84.7915 227.222L111 200.321L137.208 227.222H84.7915Z" fill="#FDF4E4" stroke="black" stroke-width="2"/>
<path d="M137.208 186.778L111 213.679L84.7915 186.778L137.208 186.778Z" fill="#FDF4E4" stroke="black" stroke-width="2"/>
<path d="M102.857 207.145L84.2146 226.59L84.2146 187.7L102.857 207.145Z" fill="#FDF4E4"/>
<path d="M119.143 207.145L137.785 226.59L137.785 187.7L119.143 207.145Z" fill="#FDF4E4"/>
<path d="M47.7915 319.222L74 292.321L100.208 319.222H47.7915Z" fill="#D49886" stroke="black" stroke-width="2"/>
<path d="M100.208 278.778L74 305.679L47.7915 278.778L100.208 278.778Z" fill="#D49886" stroke="black" stroke-width="2"/>
<path d="M65.8574 299.145L47.2146 318.59L47.2146 279.7L65.8574 299.145Z" fill="#D49886"/>
<path d="M82.1426 299.145L100.785 318.59L100.785 279.7L82.1426 299.145Z" fill="#D49886"/>
<path d="M19.7915 401.222L46 374.321L72.2085 401.222H19.7915Z" fill="#E2BB49" stroke="black" stroke-width="2"/>
<path d="M72.2085 360.778L46 387.679L19.7915 360.778L72.2085 360.778Z" fill="#E2BB49" stroke="black" stroke-width="2"/>
<path d="M37.8574 381.145L19.2146 400.59L19.2146 361.7L37.8574 381.145Z" fill="#E2BB49"/>
<path d="M54.1426 381.145L72.7854 400.59L72.7854 361.7L54.1426 381.145Z" fill="#E2BB49"/>
</svg>
