<svg width="494" height="608" viewBox="0 0 494 608" fill="none" xmlns="http://www.w3.org/2000/svg">
<rect width="493.242" height="330.746" rx="33" fill="#4D4D4D"/>
<path d="M12.5962 41.5528C12.5962 23.3274 27.3708 8.55273 45.5962 8.55273H447.492C465.717 8.55273 480.492 23.3273 480.492 41.5527V289.194C480.492 307.419 465.717 322.194 447.492 322.194H45.5962C27.3708 322.194 12.5962 307.419 12.5962 289.194V41.5528Z" fill="#D9D9D9"/>
<mask id="mask0_2003_3360" style="mask-type:alpha" maskUnits="userSpaceOnUse" x="12" y="8" width="469" height="315">
<path d="M12.7021 41.4678C12.7021 23.2424 27.4768 8.46777 45.7021 8.46777H447.598C465.823 8.46777 480.598 23.2424 480.598 41.4678V289.109C480.598 307.334 465.823 322.109 447.598 322.109H45.7022C27.4768 322.109 12.7021 307.334 12.7021 289.109V41.4678Z" fill="#D9D9D9"/>
</mask>
<g mask="url(#mask0_2003_3360)">
<line x1="118.313" y1="25.0356" x2="118.313" y2="305.555" stroke="#5E5D5D" strokeWidth="4"/>
<line x1="32.9653" y1="60.5107" x2="458.099" y2="60.5107" stroke="#5E5D5D" strokeWidth="4"/>
<line x1="30.1665" y1="163.295" x2="455.3" y2="163.295" stroke="#5E5D5D" strokeWidth="4"/>
<line x1="32.9653" y1="260.793" x2="458.099" y2="260.793" stroke="#5E5D5D" strokeWidth="4"/>
</g>
<path d="M479.791 330.746H12.8284L4.19824 340.465H489.976L479.791 330.746Z" fill="#D9D9D9"/>
<path d="M4.27539 348.706V340.309H489.898V348.706H4.27539Z" fill="#B0B0B0"/>
<path d="M186.987 348.628H220.886L140.726 608H106.828L186.987 348.628Z" fill="#D9D9D9"/>
<path d="M306.178 348.628H272.28L352.439 608H386.338L306.178 348.628Z" fill="#D9D9D9"/>
<path d="M175.536 81.032H150.064V103.432H171.44V116.104H150.064V149H131.76V67.592H175.536V81.032ZM232.805 149L229.989 134.28H211.429L208.613 149H190.565L208.997 67.592H232.293L251.237 149H232.805ZM213.989 120.968H227.301L220.645 86.536L213.989 120.968ZM286.104 149C275.267 149 269.848 144.264 269.848 134.792V81.672C269.848 72.2853 275.267 67.592 286.104 67.592H303.256C314.008 67.592 319.384 72.2853 319.384 81.672V134.792C319.384 140.424 317.549 144.392 313.88 146.696L324.504 158.856H304.152L295.704 149H286.104ZM288.152 84.232V132.36C288.152 134.493 289.304 135.56 291.608 135.56H297.752C299.971 135.56 301.08 134.493 301.08 132.36V84.232C301.08 82.0987 299.971 81.032 297.752 81.032H291.608C289.304 81.032 288.152 82.0987 288.152 84.232ZM356.216 67.592H371.576C382.328 67.592 387.704 72.2853 387.704 81.672V98.44C387.704 107.827 382.328 112.52 371.576 112.52H371.32L370.552 120.584H355.32L353.656 102.024H366.072C367.352 102.024 368.205 101.811 368.632 101.384C369.144 100.872 369.4 100.019 369.4 98.824V83.336C369.4 82.1413 369.144 81.3307 368.632 80.904C368.205 80.392 367.352 80.136 366.072 80.136H361.592C359.373 80.136 358.264 81.2027 358.264 83.336V92.168H339.96V81.672C339.96 72.2853 345.379 67.592 356.216 67.592ZM353.4 149V130.056H371.96V149H353.4ZM422.891 67.592H438.251C449.003 67.592 454.379 72.2853 454.379 81.672V98.44C454.379 107.827 449.003 112.52 438.251 112.52H437.995L437.227 120.584H421.995L420.331 102.024H432.747C434.027 102.024 434.88 101.811 435.307 101.384C435.819 100.872 436.075 100.019 436.075 98.824V83.336C436.075 82.1413 435.819 81.3307 435.307 80.904C434.88 80.392 434.027 80.136 432.747 80.136H428.267C426.048 80.136 424.939 81.2027 424.939 83.336V92.168H406.635V81.672C406.635 72.2853 412.054 67.592 422.891 67.592ZM420.075 149V130.056H438.635V149H420.075Z" fill="#B12E45"/>
<path d="M139.356 209.912C141.276 209.912 142.812 210.512 143.964 211.712C145.14 212.912 145.728 214.496 145.728 216.464V230H143.136V216.464C143.136 215.192 142.788 214.172 142.092 213.404C141.396 212.612 140.484 212.216 139.356 212.216H135.54C134.292 212.216 133.284 212.612 132.516 213.404C131.748 214.172 131.364 215.192 131.364 216.464V226.148H131.436L133.668 220.676C134.148 219.5 134.676 218.672 135.252 218.192C135.828 217.712 136.548 217.472 137.412 217.472C138.492 217.472 139.356 217.784 140.004 218.408C140.652 219.032 140.976 219.872 140.976 220.928C140.976 221.936 140.64 222.764 139.968 223.412C139.32 224.036 138.468 224.348 137.412 224.348C136.884 224.348 136.38 224.228 135.9 223.988C135.444 223.748 135.084 223.424 134.82 223.016L131.688 230H128.88V216.464C128.88 214.496 129.492 212.912 130.716 211.712C131.94 210.512 133.548 209.912 135.54 209.912H139.356ZM137.412 219.2C136.884 219.2 136.464 219.356 136.152 219.668C135.84 219.98 135.684 220.4 135.684 220.928C135.684 221.456 135.84 221.876 136.152 222.188C136.464 222.5 136.884 222.656 137.412 222.656C137.94 222.656 138.36 222.5 138.672 222.188C138.984 221.876 139.14 221.456 139.14 220.928C139.14 220.4 138.984 219.98 138.672 219.668C138.36 219.356 137.94 219.2 137.412 219.2ZM143.682 206.888C142.506 206.888 141.558 206.54 140.838 205.844C140.118 205.148 139.758 204.224 139.758 203.072C139.758 201.92 140.118 200.996 140.838 200.3C141.558 199.604 142.506 199.256 143.682 199.256C144.858 199.256 145.806 199.604 146.526 200.3C147.246 200.996 147.606 201.92 147.606 203.072C147.606 204.224 147.246 205.148 146.526 205.844C145.806 206.54 144.858 206.888 143.682 206.888ZM143.682 205.052C144.282 205.052 144.774 204.872 145.158 204.512C145.518 204.152 145.698 203.672 145.698 203.072C145.698 202.472 145.518 201.992 145.158 201.632C144.774 201.272 144.282 201.092 143.682 201.092C143.082 201.092 142.602 201.272 142.242 201.632C141.858 201.992 141.666 202.472 141.666 203.072C141.666 203.672 141.858 204.152 142.242 204.512C142.602 204.872 143.082 205.052 143.682 205.052ZM161.745 215.672C161.745 214.616 161.457 213.776 160.881 213.152C160.329 212.528 159.585 212.216 158.649 212.216H155.949C154.893 212.216 154.041 212.612 153.393 213.404C152.745 214.172 152.421 215.192 152.421 216.464H149.901C149.901 214.496 150.453 212.912 151.557 211.712C152.661 210.512 154.125 209.912 155.949 209.912H158.649C160.353 209.912 161.721 210.44 162.753 211.496C163.809 212.552 164.337 213.944 164.337 215.672V230H161.745V215.672ZM180.271 209.912C181.975 209.912 183.355 210.44 184.411 211.496C185.467 212.528 185.995 213.896 185.995 215.6V230H183.403V215.6C183.403 214.592 183.079 213.776 182.431 213.152C181.807 212.528 180.979 212.216 179.947 212.216H176.023C175.015 212.216 174.091 212.576 173.251 213.296C172.435 214.016 171.823 214.964 171.415 216.14C172.255 216.548 172.903 217.124 173.359 217.868C173.815 218.588 174.043 219.404 174.043 220.316V223.664C174.427 223.496 174.835 223.412 175.267 223.412C176.323 223.412 177.163 223.724 177.787 224.348C178.411 224.972 178.723 225.812 178.723 226.868C178.723 227.924 178.387 228.776 177.715 229.424C177.067 230.048 176.191 230.36 175.087 230.36C173.983 230.36 173.095 230.048 172.423 229.424C171.775 228.776 171.451 227.924 171.451 226.868V220.316C171.451 218.564 170.515 217.508 168.643 217.148C168.811 215.9 169.243 214.724 169.939 213.62C170.635 212.516 171.511 211.628 172.567 210.956C173.647 210.26 174.799 209.912 176.023 209.912H180.271ZM175.087 225.14C174.559 225.14 174.139 225.296 173.827 225.608C173.515 225.92 173.359 226.34 173.359 226.868C173.359 227.396 173.515 227.816 173.827 228.128C174.139 228.44 174.559 228.596 175.087 228.596C175.615 228.596 176.035 228.44 176.347 228.128C176.659 227.816 176.815 227.396 176.815 226.868C176.815 226.34 176.659 225.92 176.347 225.608C176.035 225.296 175.615 225.14 175.087 225.14ZM201.999 215.672C201.999 214.616 201.711 213.776 201.135 213.152C200.583 212.528 199.839 212.216 198.903 212.216H196.203C195.147 212.216 194.295 212.612 193.647 213.404C192.999 214.172 192.675 215.192 192.675 216.464H190.155C190.155 214.496 190.707 212.912 191.811 211.712C192.915 210.512 194.379 209.912 196.203 209.912H198.903C200.607 209.912 201.975 210.44 203.007 211.496C204.063 212.552 204.591 213.944 204.591 215.672V230H201.999V215.672ZM227.077 210.2V230H224.557C223.597 228.608 222.373 227.396 220.885 226.364C219.421 225.332 217.969 224.672 216.529 224.384V229.604C216.193 229.844 215.749 230.024 215.197 230.144C214.645 230.288 214.045 230.36 213.397 230.36C212.221 230.36 211.261 230.012 210.517 229.316C209.797 228.596 209.437 227.66 209.437 226.508C209.437 225.164 209.845 224.108 210.661 223.34C211.501 222.548 212.593 222.152 213.937 222.152V216.572C213.625 216.716 213.229 216.788 212.749 216.788C211.693 216.788 210.841 216.476 210.193 215.852C209.569 215.204 209.257 214.364 209.257 213.332C209.257 212.276 209.581 211.436 210.229 210.812C210.901 210.164 211.789 209.84 212.893 209.84C213.997 209.84 214.873 210.164 215.521 210.812C216.193 211.436 216.529 212.276 216.529 213.332V222.224C217.945 222.488 219.385 223.04 220.849 223.88C222.313 224.72 223.525 225.68 224.485 226.76V210.2H227.077ZM212.893 215.06C213.421 215.06 213.841 214.904 214.153 214.592C214.465 214.28 214.621 213.86 214.621 213.332C214.621 212.804 214.465 212.384 214.153 212.072C213.841 211.76 213.421 211.604 212.893 211.604C212.365 211.604 211.945 211.76 211.633 212.072C211.321 212.384 211.165 212.804 211.165 213.332C211.165 213.86 211.321 214.28 211.633 214.592C211.945 214.904 212.365 215.06 212.893 215.06ZM214.153 224.168H213.865C213.121 224.168 212.545 224.384 212.137 224.816C211.729 225.224 211.525 225.788 211.525 226.508C211.525 227.132 211.681 227.624 211.993 227.984C212.329 228.32 212.773 228.488 213.325 228.488C213.757 228.488 214.033 228.428 214.153 228.308V224.168ZM246.013 209.912C247.405 209.912 248.485 210.356 249.253 211.244C250.045 212.132 250.441 213.356 250.441 214.916V230H247.849V214.916C247.849 214.1 247.681 213.464 247.345 213.008C247.033 212.528 246.589 212.288 246.013 212.288H245.869L238.705 230H235.717V216.572C235.381 216.716 234.985 216.788 234.529 216.788C233.473 216.788 232.621 216.476 231.973 215.852C231.349 215.204 231.037 214.364 231.037 213.332C231.037 212.276 231.361 211.436 232.009 210.812C232.681 210.164 233.569 209.84 234.673 209.84C235.777 209.84 236.653 210.164 237.301 210.812C237.973 211.436 238.309 212.276 238.309 213.332V225.572H238.345L244.501 209.912H246.013ZM234.673 215.06C235.201 215.06 235.621 214.904 235.933 214.592C236.245 214.28 236.401 213.86 236.401 213.332C236.401 212.804 236.245 212.384 235.933 212.072C235.621 211.76 235.201 211.604 234.673 211.604C234.145 211.604 233.725 211.76 233.413 212.072C233.101 212.384 232.945 212.804 232.945 213.332C232.945 213.86 233.101 214.28 233.413 214.592C233.725 214.904 234.145 215.06 234.673 215.06ZM250.456 197.456V207.176C247.624 206.384 245.128 205.868 242.968 205.628C240.808 205.388 238.06 205.268 234.724 205.268C235.156 203.324 236.068 201.8 237.46 200.696C238.852 199.568 240.556 199.004 242.572 199.004C243.724 199.004 244.756 199.196 245.668 199.58C246.58 199.94 247.336 200.468 247.936 201.164V197.456H250.456ZM237.856 203.612C239.512 203.564 241.216 203.636 242.968 203.828C244.72 204.02 246.316 204.308 247.756 204.692C247.588 203.588 247.036 202.7 246.1 202.028C245.14 201.356 243.94 201.02 242.5 201.02C241.396 201.02 240.436 201.248 239.62 201.704C238.804 202.16 238.216 202.796 237.856 203.612ZM248.008 189.104H250.456V195.152H248.008V189.104ZM275.62 210.2V227.84C275.62 228.536 275.416 229.076 275.008 229.46C274.624 229.82 274.072 230 273.352 230H272.272L267.376 215.96L262.444 230H261.364C260.644 230 260.08 229.82 259.672 229.46C259.288 229.076 259.096 228.536 259.096 227.84V216.572C258.76 216.716 258.364 216.788 257.908 216.788C256.852 216.788 256 216.476 255.352 215.852C254.728 215.204 254.416 214.364 254.416 213.332C254.416 212.276 254.74 211.436 255.388 210.812C256.06 210.164 256.948 209.84 258.052 209.84C259.132 209.84 259.996 210.164 260.644 210.812C261.316 211.436 261.652 212.276 261.652 213.332V226.4H261.688L266.764 212.072H267.34C267.532 212.072 267.712 212.144 267.88 212.288C268.048 212.432 268.18 212.636 268.276 212.9L273.028 226.4H273.064V210.2H275.62ZM258.052 215.06C258.58 215.06 259 214.904 259.312 214.592C259.624 214.28 259.78 213.86 259.78 213.332C259.78 212.804 259.624 212.384 259.312 212.072C259 211.76 258.58 211.604 258.052 211.604C257.524 211.604 257.104 211.76 256.792 212.072C256.48 212.384 256.324 212.804 256.324 213.332C256.324 213.86 256.48 214.28 256.792 214.592C257.104 214.904 257.524 215.06 258.052 215.06ZM298.92 210.2V225.032C298.92 226.568 298.524 227.78 297.732 228.668C296.94 229.556 295.776 230 294.24 230H286.428C285.756 230 285.228 229.808 284.844 229.424C284.46 229.04 284.268 228.512 284.268 227.84V216.572C283.932 216.716 283.536 216.788 283.08 216.788C282.024 216.788 281.172 216.476 280.524 215.852C279.9 215.204 279.588 214.364 279.588 213.332C279.588 212.276 279.912 211.436 280.56 210.812C281.232 210.164 282.12 209.84 283.224 209.84C284.328 209.84 285.204 210.164 285.852 210.812C286.524 211.436 286.86 212.276 286.86 213.332V227.696H293.844C294.756 227.696 295.392 227.48 295.752 227.048C296.136 226.616 296.328 225.944 296.328 225.032V210.2H298.92ZM283.224 215.06C283.752 215.06 284.172 214.904 284.484 214.592C284.796 214.28 284.952 213.86 284.952 213.332C284.952 212.804 284.796 212.384 284.484 212.072C284.172 211.76 283.752 211.604 283.224 211.604C282.696 211.604 282.276 211.76 281.964 212.072C281.652 212.384 281.496 212.804 281.496 213.332C281.496 213.86 281.652 214.28 281.964 214.592C282.276 214.904 282.696 215.06 283.224 215.06ZM322.228 210.2V225.032C322.228 226.568 321.832 227.78 321.04 228.668C320.248 229.556 319.084 230 317.548 230H309.736C309.064 230 308.536 229.808 308.152 229.424C307.768 229.04 307.576 228.512 307.576 227.84V216.572C307.24 216.716 306.844 216.788 306.388 216.788C305.332 216.788 304.48 216.476 303.832 215.852C303.208 215.204 302.896 214.364 302.896 213.332C302.896 212.276 303.22 211.436 303.868 210.812C304.54 210.164 305.428 209.84 306.532 209.84C307.636 209.84 308.512 210.164 309.16 210.812C309.832 211.436 310.168 212.276 310.168 213.332V227.696H317.152C318.064 227.696 318.7 227.48 319.06 227.048C319.444 226.616 319.636 225.944 319.636 225.032V210.2H322.228ZM306.532 215.06C307.06 215.06 307.48 214.904 307.792 214.592C308.104 214.28 308.26 213.86 308.26 213.332C308.26 212.804 308.104 212.384 307.792 212.072C307.48 211.76 307.06 211.604 306.532 211.604C306.004 211.604 305.584 211.76 305.272 212.072C304.96 212.384 304.804 212.804 304.804 213.332C304.804 213.86 304.96 214.28 305.272 214.592C305.584 214.904 306.004 215.06 306.532 215.06ZM319.725 199.652H322.245V206.816H319.725V199.652ZM337.941 209.912C339.645 209.912 341.013 210.44 342.045 211.496C343.101 212.552 343.629 213.944 343.629 215.672V225.032C343.629 226.568 343.233 227.78 342.441 228.668C341.649 229.556 340.485 230 338.949 230H330.561C329.889 230 329.361 229.808 328.977 229.424C328.593 229.04 328.401 228.512 328.401 227.84V220.712C328.401 219.656 328.725 218.816 329.373 218.192C330.045 217.544 330.933 217.22 332.037 217.22C333.141 217.22 334.017 217.544 334.665 218.192C335.337 218.816 335.673 219.656 335.673 220.712C335.673 221.744 335.361 222.584 334.737 223.232C334.113 223.856 333.273 224.168 332.217 224.168C331.737 224.168 331.329 224.096 330.993 223.952V227.696H338.733C339.621 227.696 340.221 227.492 340.533 227.084C340.869 226.652 341.037 225.968 341.037 225.032V215.672C341.037 214.616 340.749 213.776 340.173 213.152C339.621 212.528 338.877 212.216 337.941 212.216H333.333C332.157 212.216 331.209 212.564 330.489 213.26C329.793 213.956 329.445 214.868 329.445 215.996H326.925C326.925 214.172 327.513 212.708 328.689 211.604C329.865 210.476 331.413 209.912 333.333 209.912H337.941ZM332.037 218.984C331.509 218.984 331.089 219.14 330.777 219.452C330.465 219.764 330.309 220.184 330.309 220.712C330.309 221.24 330.465 221.66 330.777 221.972C331.089 222.284 331.509 222.44 332.037 222.44C332.565 222.44 332.985 222.284 333.297 221.972C333.609 221.66 333.765 221.24 333.765 220.712C333.765 220.184 333.609 219.764 333.297 219.452C332.985 219.14 332.565 218.984 332.037 218.984ZM365.04 210.2V225.032C365.04 226.568 364.644 227.78 363.852 228.668C363.06 229.556 361.896 230 360.36 230H351.468C350.796 230 350.268 229.808 349.884 229.424C349.5 229.04 349.308 228.512 349.308 227.84V225.644C349.308 224.516 349.536 223.544 349.992 222.728C350.472 221.888 351.168 221.24 352.08 220.784V220.748C351 220.34 350.208 219.776 349.704 219.056C349.2 218.312 348.948 217.34 348.948 216.14C348.948 214.244 349.404 212.72 350.316 211.568C351.252 210.416 352.464 209.84 353.952 209.84C355.056 209.84 355.944 210.164 356.616 210.812C357.288 211.436 357.624 212.276 357.624 213.332C357.624 214.364 357.3 215.204 356.652 215.852C356.028 216.476 355.188 216.788 354.132 216.788C353.532 216.788 352.98 216.656 352.476 216.392C351.996 216.128 351.624 215.756 351.36 215.276C351.312 215.468 351.288 215.756 351.288 216.14C351.288 217.364 351.636 218.252 352.332 218.804C353.028 219.356 354.132 219.632 355.644 219.632H357.156V221.864H355.644C353.148 221.864 351.9 223.124 351.9 225.644V227.696H359.964C360.852 227.696 361.488 227.492 361.872 227.084C362.256 226.676 362.448 225.992 362.448 225.032V210.2H365.04ZM353.952 211.604C353.424 211.604 353.004 211.76 352.692 212.072C352.38 212.384 352.224 212.804 352.224 213.332C352.224 213.86 352.38 214.28 352.692 214.592C353.004 214.904 353.424 215.06 353.952 215.06C354.48 215.06 354.9 214.904 355.212 214.592C355.548 214.28 355.716 213.86 355.716 213.332C355.716 212.804 355.548 212.384 355.212 212.072C354.9 211.76 354.48 211.604 353.952 211.604Z" fill="black"/>
</svg>
