<svg width="1474" height="962" viewBox="0 0 1474 962" fill="none" xmlns="http://www.w3.org/2000/svg">
<mask id="mask0_2288_4999" style="mask-type:alpha" maskUnits="userSpaceOnUse" x="0" y="0" width="1474" height="962">
<rect width="1474" height="962" fill="#D9D9D9"/>
</mask>
<g mask="url(#mask0_2288_4999)">
<path fill-rule="evenodd" clip-rule="evenodd" d="M622.231 327.919C603.85 332.349 583.731 362.792 579.546 392.507C578.387 400.74 578.95 409.443 581.58 423.935C582.96 431.533 584.288 434.543 590.347 443.815C592.557 447.198 594.867 450.772 595.48 451.758C598.931 457.307 605.645 466.95 607.554 469.097C609.516 471.304 609.806 473.539 610.151 489.137C610.364 498.794 610.783 509.199 611.08 512.261C611.379 515.323 612.126 524.842 612.741 533.415C613.356 541.988 614.373 554.726 615.002 561.721C615.63 568.717 616.35 589.258 616.601 607.37C616.853 625.481 617.37 645.559 617.753 651.989C619.929 688.659 617.753 711.554 619.444 717.678C619.444 721.574 619.633 725.03 619.444 732.152L625.29 744.427L629.645 747.872C632.04 749.767 636.441 752.244 639.424 753.376C646.506 756.064 664.439 757.504 666.769 755.571C667.692 754.808 672.343 752.176 677.106 749.724C684.561 745.885 687.041 745.186 694.928 744.694C704.786 744.079 717.953 746.386 725.336 750.02C731.53 753.07 748.656 758.634 756.289 760.077C772.091 763.063 787.825 755.223 798.835 738.872C810.207 721.983 818.919 699.477 820.183 683.72C820.625 678.209 821.59 669.073 822.328 663.417C823.883 651.495 823.255 647.264 814.829 613.021C806.917 580.862 798.355 561.146 782.821 539.317C772.419 524.7 766.651 518.226 758.871 512.442C750.693 506.361 747.628 504.733 747.628 506.47C747.628 507.193 745.371 504.423 742.612 500.316C739.854 496.207 737.597 492.352 737.597 491.747C737.597 489.073 723.23 468.036 716.63 461.046C715.474 459.821 713.732 457.628 712.76 456.172C710 452.036 695.007 436.681 692.488 435.408C691.224 434.769 689.24 431.574 687.995 428.169C686.769 424.817 685.445 421.575 685.052 420.962C684.66 420.351 683.23 417.847 681.876 415.398C680.52 412.948 678.083 409.256 676.458 407.193C667.467 395.775 665.553 391.197 664.755 379.213C663.342 357.982 658.675 344.043 650.022 335.204C643.122 328.155 632.644 325.408 622.231 327.919ZM239.352 365.778C232.783 367.897 220.905 374.018 219.044 376.243C217.934 377.57 216.108 379.658 214.989 380.883C213.869 382.108 210.633 386.617 207.8 390.904C201.633 400.23 199.265 409.057 199.241 422.796C199.219 435.628 202.094 444.791 208.99 453.874C211.895 457.7 215.395 462.487 216.767 464.51C221.296 471.19 235.856 473.754 242.783 469.091C250.019 464.221 254.485 456.709 258.432 442.774C261.894 430.55 262.089 428.876 262.144 410.944C262.194 394.415 261.879 390.907 259.653 383.257C258.252 378.438 255.954 372.426 254.55 369.896C252.197 365.659 251.606 365.279 247.066 365.088C244.356 364.973 240.884 365.284 239.352 365.778ZM240.204 507.719C233.017 510.281 221.012 518.032 216.271 523.17C209.602 530.397 206.462 535.617 202.412 546.219C198.93 555.332 198.798 556.281 198.818 571.826C198.851 596.764 202.954 608.537 215.433 619.509C218.248 621.985 222.149 624.352 224.1 624.768C226.052 625.185 228.15 625.901 228.763 626.359C229.376 626.819 231.884 627.445 234.336 627.751C237.896 628.196 240.48 627.497 247.154 624.283C254.677 620.661 255.914 619.593 259.508 613.618C261.705 609.965 263.519 606.458 263.541 605.824C263.562 605.19 264.131 601.783 264.806 598.254C267.351 584.943 262.38 553.095 256.568 545.484C253.811 541.873 253.663 541.185 254.814 537.349C256.63 531.296 256.402 517.801 254.422 513.974C252.643 510.539 247.629 506.107 245.61 506.186C244.927 506.213 242.494 506.903 240.204 507.719ZM229.145 697.5C209.713 704.511 196.254 716.255 192.916 729.114C190.429 738.686 192.714 743.785 203.403 752.52C212.594 760.031 222.311 764.995 229.877 766.045C232.943 766.47 237.924 767.536 240.948 768.412C243.971 769.289 248.337 770.006 250.65 770.006C254.536 770.006 254.899 769.731 255.42 766.388C256.943 756.628 257.189 742.185 256.105 726.246C254.646 704.814 253.346 698.196 250.157 695.965C246.594 693.472 238.715 694.048 229.145 697.5Z" fill="#F1C1A2"/>
<mask id="mask1_2288_4999" style="mask-type:alpha" maskUnits="userSpaceOnUse" x="597" y="410" width="877" height="552">
<rect x="597" y="410" width="877" height="552" fill="#D9D9D9"/>
</mask>
<g mask="url(#mask1_2288_4999)">
<path fill-rule="evenodd" clip-rule="evenodd" d="M1556.57 452.564C1551.97 453.384 1540.18 454.851 1530.37 455.825C1510.67 457.778 1495.76 460.836 1486.94 464.734C1483.75 466.139 1470.4 470.888 1457.27 475.288C1431.9 483.787 1423.39 487.948 1405.78 500.465C1394.08 508.786 1392.37 509.435 1388.62 506.982C1382.5 502.978 1353.26 496.825 1345.49 497.908C1339.65 498.723 1312.04 507.941 1308.49 510.261C1305.14 512.45 1303.02 512.458 1299.72 510.297C1298.28 509.357 1296.17 508.405 1295.02 508.18C1293.87 507.954 1289.67 507.155 1285.68 506.404C1281.7 505.653 1275.68 504.295 1272.31 503.388C1247.19 496.625 1245.81 496.449 1221.91 496.95C1208.77 497.224 1195.55 498.117 1190.37 499.077C1179.62 501.072 1166.56 502.598 1146.1 504.245C1129.38 505.591 1119.62 507.668 1105.04 512.973C1099.8 514.881 1094.28 516.475 1092.78 516.515C1087.95 516.643 1079.11 514.282 1073.54 511.373C1070.56 509.816 1067.53 508.74 1066.82 508.98C1066.11 509.222 1063.8 508.703 1061.7 507.828C1059.59 506.954 1052.82 504.69 1046.65 502.797C1035.77 499.461 1034.71 499.349 1012.35 499.163L989.268 498.972L985.035 495.293C982.706 493.27 979.758 490.568 978.484 489.288C968.301 479.068 953.004 473.881 922.277 470.227C908.82 468.628 903.127 468.486 888.277 469.379C878.468 469.97 861.663 470.547 850.933 470.662C822.147 470.971 803.266 472.701 789.065 476.332C782.321 478.057 771.535 480.586 765.098 481.953C758.66 483.32 751.531 485.382 749.257 486.535C746.982 487.688 744.127 488.632 742.913 488.632C741.698 488.632 740.389 489.14 740.005 489.762C739.619 490.384 738.838 490.606 738.267 490.253C735.693 488.665 737.664 493.8 742.245 500.619C745.004 504.724 747.262 507.493 747.262 506.771C747.262 505.035 750.326 506.662 758.505 512.741C774.563 524.673 795.077 555.211 805.688 582.975C809.421 592.743 817.912 625.467 821.424 643.621C823.051 652.034 823.126 654.787 821.969 663.653C821.231 669.307 820.265 678.44 819.823 683.949C818.559 699.699 809.846 722.196 798.473 739.078C787.462 755.422 771.727 763.26 755.923 760.275C748.29 758.832 731.162 753.27 724.967 750.222C718.019 746.804 704.527 744.332 695.191 744.769C687.624 745.122 685.255 745.797 676.754 750.014C671.39 752.676 667 755.476 667 756.236C667 757.855 679.07 772.055 686.097 778.703C693.844 786.031 709.91 797.762 716.888 801.187C720.412 802.916 725.95 805.917 729.196 807.854C732.442 809.792 735.577 811.378 736.163 811.378C736.75 811.378 737.229 811.787 737.229 812.287C737.229 813.623 754.316 821.773 763.983 825.05C771.765 827.688 781.153 829.084 794.639 829.611C807.268 830.105 852.369 826.133 868.173 823.136L875.937 821.663L881.502 827.103C887.631 833.095 916.101 852.461 922.277 854.839C926.463 856.451 948.854 867.78 950.703 869.223C953.092 871.086 972.284 878.073 979.687 879.774C983.978 880.76 991.274 882.549 995.9 883.749C1000.53 884.947 1009.05 886.657 1014.85 887.546C1020.65 888.434 1029.66 889.904 1034.87 890.81C1040.08 891.717 1047.85 892.765 1052.15 893.139C1075.88 895.211 1083.84 896.643 1112.9 904.074C1122.4 906.504 1132.87 908.944 1136.15 909.495C1139.44 910.046 1143.45 911.152 1145.07 911.952C1152.63 915.69 1171.53 921.414 1193.66 926.669C1200.37 928.264 1207.01 930.005 1208.42 930.54C1214.76 932.945 1245.59 937.375 1262.83 938.357C1273.26 938.95 1285.55 939.869 1290.14 940.396C1294.74 940.925 1305.53 941.154 1314.11 940.907C1351.67 939.825 1362.77 939.245 1365.46 938.225C1367.03 937.627 1370.78 937.137 1373.78 937.137C1387.14 937.137 1416.54 931.649 1427.32 927.139C1433.72 924.467 1439.4 924.856 1451.78 928.818C1467.36 933.8 1478.94 935.918 1496.19 936.942C1527.42 938.796 1554.25 937.429 1568.83 933.242C1572.2 932.273 1576.92 930.982 1579.31 930.371C1584.22 929.116 1602.31 928.426 1602.99 926.669C1603.24 926.037 1602.99 818.417 1602.99 692.992C1602.99 567.568 1602.5 484 1602.5 455.825C1602.5 450.5 1567.56 450.602 1556.57 452.564Z" fill="#5B8291"/>
<mask id="mask2_2288_4999" style="mask-type:alpha" maskUnits="userSpaceOnUse" x="192" y="327" width="631" height="444">
<path fill-rule="evenodd" clip-rule="evenodd" d="M622.1 327.92C603.724 332.354 583.612 362.822 579.428 392.562C578.269 400.802 578.832 409.512 581.462 424.016C582.841 431.62 584.168 434.633 590.226 443.913C592.435 447.298 594.744 450.875 595.357 451.863C598.807 457.416 605.519 467.067 607.427 469.216C609.389 471.425 609.679 473.662 610.023 489.273C610.236 498.937 610.655 509.352 610.953 512.416C611.251 515.48 611.998 525.008 612.613 533.588C613.228 542.168 614.244 554.917 614.873 561.918C615.501 568.919 616.221 589.478 616.472 607.604C616.724 625.73 617.241 645.826 617.623 652.261C619.799 688.962 621.983 710.206 624.322 717.448C625.22 720.226 625.648 726.213 625.46 733.34L625.158 744.776L629.511 748.225C631.906 750.121 636.305 752.599 639.288 753.733C646.367 756.423 664.295 757.864 666.624 755.93C667.547 755.166 672.197 752.531 676.958 750.078C684.411 746.236 686.89 745.536 694.775 745.043C704.63 744.428 717.793 746.737 725.173 750.374C731.365 753.426 748.487 758.995 756.117 760.44C771.915 763.428 787.643 755.581 798.65 739.217C810.018 722.314 818.728 699.788 819.991 684.019C820.434 678.503 821.399 669.359 822.136 663.698C823.691 651.766 823.062 647.532 814.639 613.26C806.73 581.075 798.17 561.342 782.641 539.495C772.242 524.865 766.476 518.386 758.698 512.598C750.522 506.511 747.459 504.882 747.459 506.62C747.459 507.344 745.203 504.571 742.445 500.461C739.687 496.349 737.43 492.49 737.43 491.885C737.43 489.208 723.068 468.154 716.47 461.158C715.315 459.932 713.573 457.737 712.602 456.28C709.843 452.141 694.854 436.773 692.336 435.499C691.072 434.859 689.089 431.661 687.844 428.254C686.618 424.899 685.294 421.654 684.902 421.041C684.51 420.429 683.08 417.923 681.726 415.472C680.371 413.02 677.935 409.325 676.311 407.26C667.322 395.832 665.409 391.251 664.611 379.257C663.199 358.008 658.533 344.057 649.883 335.211C642.984 328.156 632.51 325.407 622.1 327.92ZM239.337 365.811C232.771 367.931 220.897 374.057 219.036 376.284C217.926 377.612 216.101 379.703 214.982 380.928C213.862 382.154 210.627 386.667 207.795 390.957C201.63 400.291 199.263 409.126 199.239 422.876C199.217 435.719 202.091 444.889 208.985 453.98C211.889 457.81 215.388 462.6 216.759 464.625C221.287 471.31 235.843 473.877 242.767 469.21C250.001 464.336 254.466 456.818 258.412 442.871C261.873 430.636 262.068 428.961 262.123 411.014C262.173 394.471 261.857 390.96 259.632 383.304C258.231 378.481 255.935 372.464 254.531 369.932C252.178 365.691 251.588 365.311 247.049 365.12C244.34 365.005 240.869 365.316 239.337 365.811ZM240.19 507.871C233.005 510.435 221.004 518.191 216.263 523.334C209.597 530.567 206.458 535.792 202.409 546.402C198.928 555.523 198.796 556.473 198.816 572.031C198.849 596.989 202.951 608.773 215.425 619.753C218.24 622.232 222.14 624.601 224.09 625.017C226.041 625.434 228.139 626.151 228.751 626.61C229.364 627.07 231.871 627.696 234.323 628.003C237.882 628.448 240.465 627.748 247.137 624.531C254.658 620.907 255.895 619.838 259.487 613.858C261.683 610.202 263.498 606.691 263.519 606.057C263.54 605.422 264.109 602.013 264.783 598.481C267.329 585.159 262.359 553.284 256.549 545.667C253.792 542.053 253.644 541.364 254.795 537.525C256.61 531.467 256.383 517.961 254.403 514.131C252.624 510.692 247.612 506.257 245.594 506.336C244.911 506.363 242.478 507.054 240.19 507.871ZM229.134 697.81C209.708 704.827 196.253 716.581 192.915 729.451C190.429 739.031 192.714 744.134 203.4 752.876C212.587 760.393 222.302 765.362 229.866 766.412C232.93 766.838 237.91 767.904 240.933 768.781C243.955 769.659 248.32 770.377 250.632 770.377C254.517 770.377 254.88 770.102 255.401 766.755C256.923 756.988 257.169 742.533 256.085 726.58C254.627 705.13 253.327 698.507 250.139 696.274C246.577 693.779 238.701 694.355 229.134 697.81Z" fill="#F1C1A2"/>
</mask>
<g mask="url(#mask2_2288_4999)">
<path d="M657.757 392.071C651.963 380.483 660.171 361.985 665 354.185L849.974 282.87L930.761 490.687L936.89 743.077L607.056 871.221C565.269 823.121 500.211 736.095 578.084 743.077C658.871 750.319 683.015 746.234 691.186 740.848C753.587 752.437 799.545 744.867 806.517 689.59C814.317 627.746 754.398 529.08 745.787 517.43C736.316 504.616 700.658 470.63 687.843 435.529C680.601 419.929 659.942 396.442 657.757 392.071Z" fill="#E7B598"/>
<path d="M689.672 482.721C694.357 477.43 691.536 452.111 689.516 439.986C692.673 442.958 707.02 448.877 704.559 455.029C702.347 460.559 696.477 475.417 689.672 482.721C689.621 482.779 689.569 482.834 689.516 482.887C689.568 482.832 689.62 482.777 689.672 482.721Z" fill="#E7B598"/>
<path d="M605.406 447.511C580.904 429.03 589.228 373.128 596.471 349.17C585.148 365.196 560.634 397.937 570.88 431.902C581.127 465.867 626.01 492.673 647.171 501.83L624.328 476.758L605.406 447.511Z" fill="#E7B598"/>
<path d="M603.714 558.102C609.449 567.907 627.973 588.584 656.312 593.15C656.423 593.168 656.534 593.185 656.644 593.203C656.533 593.185 656.423 593.168 656.312 593.15C633.927 589.59 590.581 581.14 593.686 575.374C596.806 569.579 601.671 561.445 603.714 558.102Z" fill="#E7B598"/>
<path d="M631.015 660.167C625.666 658.83 606.5 670.382 597.586 676.325L592.571 695.825L631.015 660.167Z" fill="#E7B598"/>
</g>
<mask id="mask3_2288_4999" style="mask-type:alpha" maskUnits="userSpaceOnUse" x="667" y="451" width="936" height="491">
<path fill-rule="evenodd" clip-rule="evenodd" d="M1556.44 452.346C1551.85 453.167 1540.06 454.636 1530.26 455.611C1510.57 457.567 1495.66 460.629 1486.84 464.531C1483.66 465.938 1470.31 470.693 1457.18 475.098C1431.82 483.608 1423.32 487.774 1405.72 500.307C1394.02 508.638 1392.31 509.288 1388.57 506.832C1382.45 502.823 1353.21 496.662 1345.45 497.746C1339.61 498.563 1312.01 507.791 1308.46 510.115C1305.12 512.307 1303 512.314 1299.7 510.15C1298.26 509.21 1296.15 508.256 1295 508.031C1293.85 507.805 1289.65 507.005 1285.67 506.253C1281.68 505.5 1275.67 504.141 1272.3 503.233C1247.19 496.461 1245.81 496.285 1221.91 496.787C1208.78 497.062 1195.57 497.956 1190.39 498.917C1179.65 500.914 1166.59 502.442 1146.14 504.091C1129.43 505.439 1119.67 507.518 1105.1 512.83C1099.86 514.74 1094.34 516.336 1092.84 516.376C1088.01 516.504 1079.18 514.141 1073.61 511.228C1070.63 509.669 1067.6 508.592 1066.89 508.832C1066.18 509.074 1063.87 508.555 1061.77 507.679C1059.66 506.803 1052.89 504.537 1046.72 502.641C1035.85 499.302 1034.79 499.189 1012.44 499.003L989.369 498.811L985.138 495.129C982.81 493.103 979.863 490.397 978.589 489.116C968.41 478.883 953.119 473.689 922.405 470.031C908.953 468.43 903.262 468.287 888.419 469.182C878.613 469.774 861.815 470.351 851.089 470.467C822.315 470.775 803.441 472.508 789.246 476.143C782.504 477.87 771.723 480.403 765.288 481.771C758.853 483.14 751.727 485.205 749.454 486.359C747.18 487.513 744.326 488.458 743.112 488.458C741.898 488.458 740.59 488.968 740.205 489.59C739.82 490.213 739.039 490.435 738.468 490.082C735.895 488.492 737.865 493.633 742.445 500.46C745.203 504.571 747.459 507.344 747.459 506.62C747.459 504.882 750.522 506.511 758.698 512.597C774.75 524.545 795.255 555.12 805.862 582.919C809.594 592.699 818.082 625.464 821.592 643.641C823.218 652.064 823.293 654.82 822.137 663.698C821.399 669.359 820.434 678.503 819.991 684.018C818.728 699.788 810.018 722.314 798.65 739.216C787.643 755.581 771.915 763.428 756.117 760.439C748.487 758.995 731.365 753.426 725.173 750.374C718.228 746.952 704.741 744.477 695.409 744.914C687.845 745.268 685.477 745.944 676.98 750.166C671.618 752.831 667.229 755.635 667.229 756.396C667.229 758.017 679.295 772.234 686.319 778.89C694.063 786.228 710.122 797.974 717.098 801.402C720.62 803.134 726.156 806.138 729.401 808.078C732.646 810.018 735.779 811.606 736.365 811.606C736.951 811.606 737.431 812.016 737.431 812.516C737.431 813.854 754.511 822.015 764.174 825.295C771.953 827.936 781.337 829.335 794.817 829.862C807.441 830.356 852.525 826.379 868.322 823.379L876.083 821.904L881.646 827.351C887.772 833.351 916.232 852.741 922.405 855.122C926.589 856.735 948.971 868.079 950.819 869.523C953.207 871.388 972.391 878.384 979.791 880.088C984.081 881.075 991.375 882.866 995.998 884.067C1000.62 885.267 1009.15 886.979 1014.94 887.869C1020.74 888.758 1029.74 890.23 1034.95 891.137C1040.16 892.045 1047.93 893.095 1052.22 893.469C1075.95 895.543 1083.91 896.977 1112.95 904.417C1122.45 906.851 1132.91 909.294 1136.19 909.845C1139.48 910.397 1143.49 911.504 1145.11 912.306C1152.67 916.048 1171.55 921.779 1193.68 927.041C1200.39 928.638 1207.03 930.381 1208.43 930.917C1214.77 933.325 1245.59 937.76 1262.82 938.743C1273.24 939.337 1285.53 940.257 1290.12 940.785C1294.72 941.314 1305.5 941.544 1314.08 941.296C1351.62 940.213 1362.72 939.633 1365.41 938.611C1366.98 938.012 1370.73 937.522 1373.73 937.522C1387.08 937.522 1416.47 932.026 1427.25 927.511C1433.64 924.836 1439.32 925.226 1451.7 929.193C1467.27 934.18 1478.84 936.301 1496.09 937.326C1527.31 939.182 1554.13 937.814 1568.7 933.622C1572.07 932.652 1576.78 931.359 1579.17 930.747C1584.09 929.49 1602.17 919.745 1602.85 917.986C1603.1 917.353 1595.51 812.507 1586 684.996C1576.48 557.483 1602.85 456.321 1602.85 455.611C1602.85 454.08 1567.43 450.381 1556.44 452.346Z" fill="#5B8291"/>
</mask>
<g mask="url(#mask3_2288_4999)">
<path d="M837.16 826.649C769.745 836.676 697.097 782.042 665.558 743.077C648.133 778.431 765.797 838.278 829.205 863.487L837.16 826.649Z" fill="#53727E"/>
<path d="M826.018 681.79C840.281 524.45 744.302 476.572 694.53 472.301L594.8 703.519C665.929 761.834 811.754 839.129 826.018 681.79Z" fill="#53727E"/>
<path d="M740.773 493.472C904.798 459.152 980.348 504.615 992.605 526.901C995.391 506.844 978.12 460.229 971.991 443.886L713.473 485.672L740.773 493.472Z" fill="#53727E"/>
<path d="M1080.64 528.573C1080.64 528.573 1080.64 521.887 979.791 505.173L978.677 489.572L1012.66 486.787C1035.32 495.144 1083.2 512.861 1093.45 516.873C1103.7 520.884 1100.14 543.616 1098.46 554.202C1084.54 528.573 1080.64 528.573 1080.64 528.573Z" fill="#53727E"/>
<path d="M1302.99 511.586C1229.22 505.273 1131.34 515.201 1090.66 523.558L1081.51 500.672L1108.04 483.013L1233.52 472.461L1302.99 511.586Z" fill="#53727E"/>
<path d="M1307.4 512.973L1292.35 510.187L1315.75 500.158L1346.95 477.315L1391.53 507.958C1394.14 512.963 1395.43 515.758 1398.21 520.773C1401 525.787 1399.23 529.262 1399.88 534.702C1398.4 530.801 1393.31 521.776 1384.84 516.873C1376.37 511.97 1360.32 495.144 1307.4 512.973Z" fill="#53727E"/>
<path d="M1600.13 462.389C1505.92 462.389 1419.4 499.725 1396.97 517L1363 484.122L1396.97 474.649L1471.95 444H1620L1600.13 462.389Z" fill="#53727E"/>
<path d="M877.276 817.734L875.047 824.977L871.704 907.436L1287.34 1008.84L1616.06 962.594V910.779C1592.43 933.065 1479.18 921.55 1425.51 913.007C1387.63 931.282 1327.27 931.393 1301.82 929.165C1275.97 933.622 1202.28 913.564 1168.67 902.979C1160.2 905.207 1098.65 894.993 1068.94 889.607C1013.22 892.727 917.948 842.992 877.276 817.734Z" fill="#53727E"/>
</g>
</g>
<g filter="url(#filter0_d_2288_4999)">
<rect x="249.307" y="41.9995" width="372.003" height="779.994" rx="40" fill="#17171B"/>
</g>
<rect x="386.308" y="65.9995" width="119.001" height="8.99993" rx="4.5" fill="#353535"/>
<rect x="266.307" y="96.999" width="338.003" height="664.995" fill="white"/>
<ellipse cx="435.308" cy="794.993" rx="20.0002" ry="19.9998" fill="#353535"/>
<ellipse cx="435.308" cy="794.993" rx="17.0001" ry="16.9999" fill="#17171B"/>
<ellipse cx="356.808" cy="70.4994" rx="13.5001" ry="13.4999" fill="#353535"/>
<ellipse cx="356.808" cy="70.4994" rx="9.50008" ry="9.49992" fill="#17171B"/>
<rect x="394.307" y="111.48" width="83" height="84.6726" rx="20" fill="#F2CA7C"/>
<rect x="394.307" y="652.262" width="83" height="84.6726" rx="20" fill="#F2CA7C"/>
<rect x="497.307" y="517.501" width="83" height="84.6726" rx="20" fill="#F2CA7C"/>
<rect x="291.308" y="213.935" width="83" height="84.6726" rx="20" fill="#F2CA7C"/>
<rect x="394.307" y="213.496" width="83" height="84.6726" rx="20" fill="#F2CA7C"/>
<rect x="496.307" y="213.496" width="83" height="84.6726" rx="20" fill="#F2CA7C"/>
<g filter="url(#filter1_d_2288_4999)">
<rect x="291.307" y="317.551" width="83" height="84.6726" rx="20" fill="#CA3450"/>
</g>
<rect x="394.307" y="317.551" width="83" height="84.6726" rx="20" fill="#F2CA7C"/>
<g filter="url(#filter2_d_2288_4999)">
<rect x="496.307" y="317.551" width="83" height="84.6726" rx="20" fill="#CA3450"/>
</g>
<rect x="394.307" y="415.486" width="83" height="84.6726" rx="20" fill="#F2CA7C"/>
<rect x="496.307" y="415.486" width="83" height="84.6726" rx="20" fill="#F2CA7C"/>
<g filter="url(#filter3_d_2288_4999)">
<rect x="291.307" y="518.521" width="83" height="84.6726" rx="20" fill="#CA3450"/>
</g>
<rect x="394.307" y="518.521" width="83" height="84.6726" rx="20" fill="#F2CA7C"/>
<path d="M498.307 672.971C498.307 661.925 507.261 652.971 518.307 652.971L561.306 652.971C572.352 652.971 581.307 661.925 581.307 672.971L581.307 715.581C581.307 726.627 572.352 735.581 561.306 735.581L518.307 735.581C507.261 735.581 498.307 726.627 498.307 715.581L498.307 672.971Z" fill="#F2CA7C"/>
<path d="M562.549 359.306L566.723 352.235C566.891 351.883 566.914 351.478 566.787 351.114L558.52 327.434C558.265 326.711 557.508 326.301 556.774 326.48L532.475 332.4C532.013 332.516 531.631 332.845 531.452 333.29L528.868 339.759H520.988C520.577 339.759 520.178 339.933 519.901 340.233L502.141 359.473C501.592 360.069 501.621 360.994 502.204 361.549L520.832 379.309C521.103 379.575 521.473 379.719 521.849 379.719H530.342L532.932 386.189C533.123 386.668 533.55 387.01 534.053 387.096L559.896 391.536C559.977 391.554 560.063 391.559 560.144 391.559C560.832 391.559 561.439 391.085 561.589 390.397L566.833 366.376C566.914 366.006 566.85 365.619 566.648 365.289L562.549 359.306ZM528.868 339.759L549.726 335.938L538.748 357.519H513.836L528.868 339.759ZM530.348 379.719L513.836 363.439H538.748L551.698 382.928L530.348 379.719ZM557.08 379.569L544.668 360.479L555.519 338.898L562.549 359.312L557.08 379.569Z" fill="white"/>
<rect x="294.308" y="416.935" width="83" height="82.6106" rx="20" fill="#F2CA7C"/>
<g clip-path="url(#clip0_2288_4999)">
<path d="M315.63 337.389H348.985C350.248 337.389 351.395 337.91 352.225 338.745L352.295 338.823C353.086 339.653 353.575 340.778 353.575 342.005V375.994C353.575 377.257 353.056 378.41 352.225 379.247L352.22 379.252C351.388 380.088 350.241 380.61 348.985 380.61H315.63C314.374 380.61 313.226 380.09 312.394 379.253C311.559 378.417 311.04 377.263 311.04 375.994V342.005C311.04 340.735 311.556 339.58 312.388 338.745L312.464 338.674C313.289 337.88 314.406 337.389 315.63 337.389ZM321.188 358.509C322.166 358.509 323.058 358.91 323.704 359.559L323.709 359.564C324.355 360.217 324.753 361.112 324.753 362.095C324.753 363.084 324.354 363.981 323.709 364.63L323.641 364.693C323.289 365.029 322.869 365.294 322.405 365.464V370.736H334.614C335.216 370.736 335.705 371.226 335.705 371.832V378.178H348.985C349.579 378.178 350.123 377.932 350.518 377.536C350.913 377.137 351.158 376.59 351.158 375.994V342.005C351.158 341.432 350.933 340.905 350.568 340.513L350.516 340.464C350.123 340.068 349.58 339.821 348.985 339.821H345.888V357.265C345.888 357.871 345.4 358.362 344.796 358.362H340.016C339.845 358.939 339.531 359.459 339.118 359.875C338.475 360.526 337.583 360.929 336.599 360.929C335.621 360.929 334.73 360.526 334.084 359.877L334.079 359.874C333.433 359.221 333.035 358.326 333.035 357.342C333.035 356.353 333.434 355.455 334.079 354.806C334.724 354.159 335.616 353.756 336.599 353.756C337.583 353.756 338.475 354.159 339.12 354.808L339.181 354.876C339.528 355.243 339.799 355.682 339.966 356.167H343.706V339.821H315.63C315.058 339.821 314.534 340.046 314.144 340.412L314.096 340.464C313.703 340.86 313.458 341.407 313.458 342.005V346.415H332.385V345.629C332.385 345.191 332.563 344.794 332.848 344.507C333.133 344.221 333.529 344.042 333.963 344.042H337.676C338.111 344.042 338.506 344.221 338.791 344.507C339.075 344.794 339.254 345.191 339.254 345.629V349.395C339.254 349.831 339.075 350.23 338.791 350.515C338.506 350.802 338.111 350.98 337.676 350.98H333.963C333.529 350.98 333.133 350.802 332.848 350.515C332.563 350.23 332.385 349.831 332.385 349.395V348.609H313.458V353.374H328.628C329.23 353.374 329.719 353.866 329.719 354.472V365.26H339.378V364.175C339.378 363.721 339.563 363.307 339.858 363.011C340.154 362.713 340.565 362.527 341.016 362.527H345.139C345.591 362.527 346.001 362.713 346.298 363.011C346.593 363.307 346.778 363.721 346.778 364.175V368.355C346.778 368.81 346.593 369.222 346.298 369.52C346.001 369.818 345.591 370.004 345.139 370.004H341.016C340.565 370.004 340.154 369.818 339.858 369.52C339.563 369.222 339.378 368.81 339.378 368.355V367.456H328.628C328.025 367.456 327.536 366.964 327.536 366.358V355.568H313.458V375.994C313.458 376.592 313.704 377.138 314.098 377.535C314.491 377.932 315.035 378.178 315.63 378.178H333.523V372.93H321.315C320.713 372.93 320.224 372.438 320.224 371.832V365.548C319.628 365.38 319.094 365.059 318.668 364.63C318.023 363.981 317.624 363.084 317.624 362.095C317.624 361.11 318.024 360.212 318.67 359.562C319.313 358.91 320.204 358.509 321.188 358.509ZM322.276 360.995C322.001 360.719 321.616 360.546 321.188 360.546C320.763 360.546 320.378 360.72 320.099 361C319.819 361.277 319.649 361.664 319.649 362.095C319.649 362.523 319.821 362.91 320.099 363.191C320.378 363.47 320.763 363.643 321.188 363.643C321.595 363.643 321.963 363.489 322.235 363.235L322.276 363.191C322.555 362.91 322.728 362.523 322.728 362.095C322.728 361.664 322.556 361.277 322.281 361L322.276 360.995ZM344.753 364.564H341.403V367.966H344.753V364.564ZM337.688 356.247C337.41 355.968 337.025 355.795 336.599 355.795C336.174 355.795 335.789 355.967 335.511 356.247C335.233 356.526 335.06 356.915 335.06 357.342C335.06 357.773 335.231 358.16 335.506 358.438L335.511 358.441C335.786 358.719 336.171 358.89 336.599 358.89C337.025 358.89 337.41 358.717 337.688 358.438C337.929 358.199 338.089 357.879 338.129 357.521C338.11 357.438 338.099 357.353 338.099 357.265C338.099 357.199 338.105 357.135 338.116 357.072C338.064 356.772 337.928 356.501 337.733 356.29L337.688 356.247ZM337.228 346.079H334.41V348.943H337.228V346.079ZM300.308 370.301V374.138C300.308 374.533 300.629 374.856 301.021 374.856H306.626C307.019 374.856 307.34 374.533 307.34 374.138V370.301C307.34 369.906 307.019 369.583 306.626 369.583H301.021C300.629 369.583 300.308 369.906 300.308 370.301ZM300.308 361.488V365.326C300.308 365.72 300.629 366.043 301.021 366.043H306.626C307.019 366.043 307.34 365.72 307.34 365.326V361.488C307.34 361.093 307.019 360.77 306.626 360.77H301.021C300.629 360.77 300.308 361.093 300.308 361.488ZM300.308 352.675V356.513C300.308 356.907 300.629 357.231 301.021 357.231H306.626C307.019 357.231 307.34 356.907 307.34 356.513V352.675C307.34 352.28 307.019 351.957 306.626 351.957H301.021C300.629 351.957 300.308 352.28 300.308 352.675ZM300.308 343.862V347.7C300.308 348.095 300.629 348.418 301.021 348.418H306.626C307.019 348.418 307.34 348.095 307.34 347.7V343.862C307.34 343.467 307.019 343.144 306.626 343.144H301.021C300.629 343.144 300.308 343.467 300.308 343.862ZM364.308 370.301V374.138C364.308 374.533 363.986 374.856 363.594 374.856H357.988C357.596 374.856 357.275 374.533 357.275 374.138V370.301C357.275 369.906 357.596 369.583 357.988 369.583H363.594C363.986 369.583 364.308 369.906 364.308 370.301ZM364.308 361.488V365.326C364.308 365.72 363.986 366.043 363.594 366.043H357.988C357.596 366.043 357.275 365.72 357.275 365.326V361.488C357.275 361.093 357.596 360.77 357.988 360.77H363.594C363.986 360.77 364.308 361.093 364.308 361.488ZM364.308 352.675V356.513C364.308 356.907 363.986 357.231 363.594 357.231H357.988C357.596 357.231 357.275 356.907 357.275 356.513V352.675C357.275 352.28 357.596 351.957 357.988 351.957H363.594C363.986 351.957 364.308 352.28 364.308 352.675ZM364.308 343.862V347.7C364.308 348.095 363.986 348.418 363.594 348.418H357.988C357.596 348.418 357.275 348.095 357.275 347.7V343.862C357.275 343.467 357.596 343.144 357.988 343.144H363.594C363.986 343.144 364.308 343.467 364.308 343.862ZM343.541 390.99H347.356C347.749 390.99 348.07 390.667 348.07 390.272V384.634C348.07 384.239 347.749 383.916 347.356 383.916H343.541C343.149 383.916 342.828 384.239 342.828 384.634V390.272C342.828 390.667 343.149 390.99 343.541 390.99ZM334.781 390.99H338.596C338.989 390.99 339.309 390.667 339.309 390.272V384.634C339.309 384.239 338.989 383.916 338.596 383.916H334.781C334.389 383.916 334.068 384.239 334.068 384.634V390.272C334.068 390.667 334.389 390.99 334.781 390.99ZM326.02 390.99H329.835C330.226 390.99 330.548 390.667 330.548 390.272V384.634C330.548 384.239 330.226 383.916 329.835 383.916H326.02C325.628 383.916 325.306 384.239 325.306 384.634V390.272C325.306 390.667 325.628 390.99 326.02 390.99ZM317.259 390.99H321.074C321.466 390.99 321.786 390.667 321.786 390.272V384.634C321.786 384.239 321.466 383.916 321.074 383.916H317.259C316.866 383.916 316.545 384.239 316.545 384.634V390.272C316.545 390.667 316.866 390.99 317.259 390.99ZM343.541 327.01H347.356C347.749 327.01 348.07 327.333 348.07 327.728V333.367C348.07 333.761 347.749 334.084 347.356 334.084H343.541C343.149 334.084 342.828 333.761 342.828 333.367V327.728C342.828 327.333 343.149 327.01 343.541 327.01ZM334.781 327.01H338.596C338.989 327.01 339.309 327.333 339.309 327.728V333.367C339.309 333.761 338.989 334.084 338.596 334.084H334.781C334.389 334.084 334.068 333.761 334.068 333.367V327.728C334.068 327.333 334.389 327.01 334.781 327.01ZM326.02 327.01H329.835C330.226 327.01 330.548 327.333 330.548 327.728V333.367C330.548 333.761 330.226 334.084 329.835 334.084H326.02C325.628 334.084 325.306 333.761 325.306 333.367V327.728C325.306 327.333 325.628 327.01 326.02 327.01ZM317.259 327.01H321.074C321.466 327.01 321.786 327.333 321.786 327.728V333.367C321.786 333.761 321.466 334.084 321.074 334.084H317.259C316.866 334.084 316.545 333.761 316.545 333.367V327.728C316.545 327.333 316.866 327.01 317.259 327.01Z" fill="white"/>
</g>
<rect x="290.307" y="652.971" width="83" height="82.6106" rx="20" fill="#F2CA7C"/>
<g filter="url(#filter4_d_2288_4999)">
<rect x="291.307" y="111.48" width="83" height="82.6106" rx="20" fill="#CA3450"/>
</g>
<g filter="url(#filter5_d_2288_4999)">
<path d="M342.809 145.593L335.909 145.593L335.909 138.393C335.909 137.493 335.759 136.918 335.459 136.668C335.209 136.368 334.634 136.218 333.734 136.218L329.909 136.218C329.009 136.218 328.409 136.368 328.109 136.668C327.809 136.918 327.659 137.493 327.659 138.393L327.659 170.418C327.659 171.318 327.809 171.918 328.109 172.218C328.409 172.468 329.009 172.593 329.909 172.593L333.734 172.593C334.634 172.593 335.209 172.468 335.459 172.218C335.759 171.918 335.909 171.318 335.909 170.418L335.909 163.293L342.809 163.293L342.809 171.243C342.809 175.693 340.459 177.918 335.759 177.918L327.809 177.918C323.159 177.918 320.834 175.693 320.834 171.243L320.834 137.493C320.834 133.093 323.159 130.893 327.809 130.893L335.759 130.893C340.459 130.893 342.809 133.093 342.809 137.493L342.809 145.593Z" fill="white"/>
</g>
<g filter="url(#filter6_d_2288_4999)">
<rect x="496.307" y="111.48" width="83" height="82.6106" rx="20" fill="#CA3450"/>
</g>
<g filter="url(#filter7_d_2288_4999)">
<path d="M532.808 122.5C527.285 122.5 522.808 126.977 522.808 132.5V135H535.308C536.688 135 537.808 136.12 537.808 137.5C537.808 138.88 536.688 140 535.308 140H522.808H520.308H517.808C512.285 140 507.808 144.477 507.808 150V159.999C507.808 165.522 512.285 169.999 517.808 169.999H520.308V157.499C520.308 153.365 523.673 150 527.808 150H547.808C549.188 150 550.308 148.88 550.308 147.5V132.5C550.308 126.977 545.83 122.5 540.308 122.5H532.808ZM530.308 127.5C531.688 127.5 532.808 128.62 532.808 130C532.808 131.38 531.688 132.5 530.308 132.5C528.928 132.5 527.808 131.38 527.808 130C527.808 128.62 528.928 127.5 530.308 127.5ZM555.308 135V147.5C555.308 151.635 551.943 155 547.808 155H527.808C526.428 155 525.308 156.119 525.308 157.499V172.499C525.308 178.022 529.785 182.499 535.308 182.499H542.808C548.33 182.499 552.808 178.022 552.808 172.499V169.999H540.308C538.928 169.999 537.808 168.879 537.808 167.499C537.808 166.119 538.928 164.999 540.308 164.999H552.808H555.308H557.808C563.33 164.999 567.808 160.522 567.808 155V145C567.808 139.477 563.33 135 557.808 135H555.308ZM545.308 172.499C546.688 172.499 547.808 173.619 547.808 174.999C547.808 176.379 546.688 177.499 545.308 177.499C543.928 177.499 542.808 176.379 542.808 174.999C542.808 173.619 543.928 172.499 545.308 172.499Z" fill="white"/>
</g>
<path d="M604.812 373.841L604.812 366.841L604.812 365.841" stroke="black"/>
<path d="M603.812 366.341L603.812 372.841" stroke="white"/>
<line x1="63.3066" y1="559.5" x2="291.307" y2="559.5" stroke="black"/>
<g filter="url(#filter8_d_2288_4999)">
<ellipse cx="42.6149" cy="558.068" rx="20.3226" ry="19.8814" transform="rotate(180 42.6149 558.068)" fill="#CA3450"/>
</g>
<line x1="685.307" y1="150.435" x2="579.307" y2="150.435" stroke="black"/>
<g filter="url(#filter9_d_2288_4999)">
<ellipse cx="706.221" cy="148.485" rx="20.9143" ry="20.5503" transform="rotate(-180 706.221 148.485)" fill="#CA3450"/>
</g>
<g filter="url(#filter10_d_2288_4999)">
<ellipse cx="709.308" cy="359.999" rx="21.0002" ry="20.9998" fill="#CA3450"/>
</g>
<line x1="688.308" y1="360.5" x2="579.308" y2="360.5" stroke="black"/>
<path d="M360.785 530.207C360.526 529.921 360.154 529.759 359.766 529.759H305.849C305.461 529.759 305.089 529.921 304.83 530.207C304.566 530.492 304.436 530.875 304.474 531.263L309.331 585.671C309.38 586.242 309.779 586.717 310.328 586.878L332.425 593.185C332.543 593.223 332.673 593.239 332.802 593.239C332.931 593.239 333.055 593.223 333.179 593.185L355.292 586.878C355.841 586.717 356.235 586.242 356.289 585.671L361.14 531.263C361.178 530.875 361.049 530.492 360.785 530.207ZM349.157 548.966H323.196L323.816 555.99H348.532L346.677 576.749L332.797 580.943L332.662 580.9L318.943 576.744L318.193 568.286H324.915L325.207 571.569L332.877 573.175L340.408 571.569L341.211 562.685H317.692L315.865 542.255H349.755L349.157 548.966Z" fill="white"/>
<line x1="86.3076" y1="357.824" x2="291.308" y2="357.824" stroke="black"/>
<g filter="url(#filter11_d_2288_4999)">
<ellipse cx="101.308" cy="355.975" rx="21" ry="20.5503" transform="rotate(-180 101.308 355.975)" fill="#CA3450"/>
</g>
<line x1="101.203" y1="148.324" x2="291.308" y2="148.324" stroke="black"/>
<g filter="url(#filter12_d_2288_4999)">
<ellipse cx="103.995" cy="146.867" rx="20.685" ry="20.5503" transform="rotate(-180 103.995 146.867)" fill="#CA3450"/>
</g>
</g>
<mask id="mask4_2288_4999" style="mask-type:alpha" maskUnits="userSpaceOnUse" x="578" y="253" width="270" height="266">
<rect x="578" y="253.003" width="270" height="265" rx="132.5" fill="#D9D9D9"/>
</mask>
<g mask="url(#mask4_2288_4999)">
<path fill-rule="evenodd" clip-rule="evenodd" d="M622.231 327.919C603.85 332.349 583.731 362.792 579.546 392.507C578.387 400.74 578.95 409.443 581.58 423.935C582.96 431.533 584.288 434.543 590.347 443.815C592.557 447.198 594.867 450.772 595.48 451.758C598.931 457.307 605.645 466.95 607.554 469.097C609.516 471.304 609.806 473.539 610.151 489.137C610.364 498.794 610.783 509.199 611.08 512.261C611.379 515.323 612.126 524.842 612.741 533.415C613.356 541.988 614.373 554.726 615.002 561.721C615.63 568.717 616.35 589.258 616.601 607.37C616.853 625.481 617.37 645.559 617.753 651.989C619.929 688.659 617.753 711.554 619.444 717.678C619.444 721.574 619.633 725.03 619.444 732.152L625.29 744.427L629.645 747.872C632.04 749.767 636.441 752.244 639.424 753.376C646.506 756.064 664.439 757.504 666.769 755.571C667.692 754.808 672.343 752.176 677.106 749.724C684.561 745.885 687.041 745.186 694.928 744.694C704.786 744.079 717.953 746.386 725.336 750.02C731.53 753.07 748.656 758.634 756.289 760.077C772.091 763.063 787.825 755.223 798.835 738.872C810.207 721.983 818.919 699.477 820.183 683.72C820.625 678.209 821.59 669.073 822.328 663.417C823.883 651.495 823.255 647.264 814.829 613.021C806.917 580.862 798.355 561.146 782.821 539.317C772.419 524.7 766.651 518.226 758.871 512.442C750.693 506.361 747.628 504.733 747.628 506.47C747.628 507.193 745.371 504.423 742.612 500.316C739.854 496.207 737.597 492.352 737.597 491.747C737.597 489.073 723.23 468.036 716.63 461.046C715.474 459.821 713.732 457.628 712.76 456.172C710 452.036 695.007 436.681 692.488 435.408C691.224 434.769 689.24 431.574 687.995 428.169C686.769 424.817 685.445 421.575 685.052 420.962C684.66 420.351 683.23 417.847 681.876 415.398C680.52 412.948 678.083 409.256 676.458 407.193C667.467 395.775 665.553 391.197 664.755 379.213C663.342 357.982 658.675 344.043 650.022 335.204C643.122 328.155 632.644 325.408 622.231 327.919ZM239.352 365.778C232.783 367.897 220.905 374.018 219.044 376.243C217.934 377.57 216.108 379.658 214.989 380.883C213.869 382.108 210.633 386.617 207.8 390.904C201.633 400.23 199.265 409.057 199.241 422.796C199.219 435.628 202.094 444.791 208.99 453.874C211.895 457.7 215.395 462.487 216.767 464.51C221.296 471.19 235.856 473.754 242.783 469.091C250.019 464.221 254.485 456.709 258.432 442.774C261.894 430.55 262.089 428.876 262.144 410.944C262.194 394.415 261.879 390.907 259.653 383.257C258.252 378.438 255.954 372.426 254.55 369.896C252.197 365.659 251.606 365.279 247.066 365.088C244.356 364.973 240.884 365.284 239.352 365.778ZM240.204 507.719C233.017 510.281 221.012 518.032 216.271 523.17C209.602 530.397 206.462 535.617 202.412 546.219C198.93 555.332 198.798 556.281 198.818 571.826C198.851 596.764 202.954 608.537 215.433 619.509C218.248 621.985 222.149 624.352 224.1 624.768C226.052 625.185 228.15 625.901 228.763 626.359C229.376 626.819 231.884 627.445 234.336 627.751C237.896 628.196 240.48 627.497 247.154 624.283C254.677 620.661 255.914 619.593 259.508 613.618C261.705 609.965 263.519 606.458 263.541 605.824C263.562 605.19 264.131 601.783 264.806 598.254C267.351 584.943 262.38 553.095 256.568 545.484C253.811 541.873 253.663 541.185 254.814 537.349C256.63 531.296 256.402 517.801 254.422 513.974C252.643 510.539 247.629 506.107 245.61 506.186C244.927 506.213 242.494 506.903 240.204 507.719ZM229.145 697.5C209.713 704.511 196.254 716.255 192.916 729.114C190.429 738.686 192.714 743.785 203.403 752.52C212.594 760.031 222.311 764.995 229.877 766.045C232.943 766.47 237.924 767.536 240.948 768.412C243.971 769.289 248.337 770.006 250.65 770.006C254.536 770.006 254.899 769.731 255.42 766.388C256.943 756.628 257.189 742.185 256.105 726.246C254.646 704.814 253.346 698.196 250.157 695.965C246.594 693.472 238.715 694.048 229.145 697.5Z" fill="#F1C1A2"/>
<path fill-rule="evenodd" clip-rule="evenodd" d="M1556.57 452.564C1551.97 453.384 1540.18 454.851 1530.37 455.825C1510.67 457.778 1495.76 460.836 1486.94 464.734C1483.75 466.139 1470.4 470.888 1457.27 475.288C1431.9 483.787 1423.39 487.948 1405.78 500.465C1394.08 508.786 1392.37 509.435 1388.62 506.982C1382.5 502.978 1353.26 496.825 1345.49 497.908C1339.65 498.723 1312.04 507.941 1308.49 510.261C1305.14 512.45 1303.02 512.458 1299.72 510.297C1298.28 509.357 1296.17 508.405 1295.02 508.18C1293.87 507.954 1289.67 507.155 1285.68 506.404C1281.7 505.652 1275.68 504.295 1272.31 503.388C1247.19 496.625 1245.81 496.449 1221.91 496.949C1208.77 497.224 1195.55 498.117 1190.37 499.077C1179.62 501.072 1166.56 502.598 1146.1 504.245C1129.38 505.591 1119.62 507.668 1105.04 512.973C1099.8 514.881 1094.28 516.475 1092.78 516.515C1087.95 516.643 1079.11 514.282 1073.54 511.373C1070.56 509.816 1067.53 508.74 1066.82 508.98C1066.11 509.222 1063.8 508.703 1061.7 507.828C1059.59 506.953 1052.82 504.69 1046.65 502.797C1035.77 499.461 1034.71 499.349 1012.35 499.163L989.268 498.972L985.035 495.293C982.706 493.27 979.758 490.568 978.484 489.288C968.301 479.068 953.004 473.881 922.277 470.227C908.82 468.628 903.127 468.485 888.277 469.379C878.468 469.97 861.663 470.547 850.933 470.662C822.147 470.971 803.266 472.701 789.065 476.332C782.321 478.057 771.535 480.586 765.098 481.953C758.66 483.32 751.531 485.382 749.257 486.535C746.982 487.688 744.127 488.632 742.913 488.632C741.698 488.632 740.389 489.14 740.005 489.762C739.619 490.384 738.838 490.606 738.267 490.253C735.693 488.665 737.664 493.8 742.245 500.619C745.004 504.724 747.262 507.493 747.262 506.771C747.262 505.035 750.326 506.662 758.505 512.741C774.563 524.673 795.077 555.211 805.688 582.975C809.421 592.743 817.912 625.467 821.424 643.621C823.051 652.033 823.126 654.787 821.969 663.653C821.231 669.307 820.265 678.44 819.823 683.949C818.559 699.699 809.846 722.196 798.473 739.078C787.462 755.422 771.727 763.26 755.923 760.275C748.29 758.832 731.162 753.27 724.967 750.222C718.019 746.804 704.527 744.332 695.191 744.768C687.624 745.122 685.255 745.797 676.754 750.014C671.39 752.676 667 755.476 667 756.236C667 757.855 679.07 772.055 686.097 778.702C693.844 786.031 709.91 797.762 716.888 801.187C720.412 802.916 725.95 805.917 729.196 807.854C732.442 809.792 735.577 811.378 736.163 811.378C736.75 811.378 737.229 811.787 737.229 812.287C737.229 813.623 754.316 821.773 763.983 825.05C771.765 827.688 781.153 829.084 794.639 829.611C807.268 830.105 852.369 826.133 868.173 823.136L875.937 821.663L881.502 827.103C887.631 833.095 916.101 852.461 922.277 854.839C926.463 856.451 948.854 867.78 950.703 869.223C953.092 871.086 972.284 878.073 979.687 879.774C983.978 880.76 991.274 882.549 995.9 883.749C1000.53 884.947 1009.05 886.657 1014.85 887.546C1020.65 888.434 1029.66 889.904 1034.87 890.81C1040.08 891.717 1047.85 892.765 1052.15 893.139C1075.88 895.211 1083.84 896.643 1112.9 904.074C1122.4 906.504 1132.87 908.944 1136.15 909.495C1139.44 910.046 1143.45 911.152 1145.07 911.952C1152.63 915.69 1171.53 921.414 1193.66 926.669C1200.37 928.264 1207.01 930.005 1208.42 930.54C1214.76 932.945 1245.59 937.375 1262.83 938.357C1273.26 938.95 1285.55 939.869 1290.14 940.396C1294.74 940.925 1305.53 941.154 1314.11 940.907C1351.67 939.825 1362.77 939.245 1365.46 938.225C1367.03 937.627 1370.78 937.137 1373.78 937.137C1387.14 937.137 1416.53 931.649 1427.32 927.139C1433.72 924.467 1439.4 924.856 1451.78 928.818C1467.36 933.8 1478.94 935.918 1496.19 936.942C1527.42 938.796 1554.25 937.429 1568.83 933.242C1572.2 932.273 1576.92 930.982 1579.31 930.371C1584.22 929.116 1602.31 919.382 1602.99 917.626C1603.24 916.994 1595.65 812.278 1586.13 684.925C1576.62 557.57 1568.83 452.791 1568.83 452.082C1568.83 450.553 1567.56 450.602 1556.57 452.564Z" fill="#5B8291"/>
<mask id="mask5_2288_4999" style="mask-type:alpha" maskUnits="userSpaceOnUse" x="192" y="327" width="631" height="444">
<path fill-rule="evenodd" clip-rule="evenodd" d="M622.1 327.92C603.724 332.354 583.612 362.822 579.428 392.562C578.269 400.802 578.832 409.512 581.462 424.016C582.841 431.62 584.168 434.633 590.226 443.913C592.435 447.298 594.744 450.875 595.357 451.863C598.807 457.416 605.519 467.067 607.427 469.216C609.389 471.425 609.679 473.662 610.023 489.273C610.236 498.937 610.655 509.352 610.953 512.416C611.251 515.48 611.998 525.008 612.613 533.588C613.228 542.168 614.244 554.917 614.873 561.918C615.501 568.919 616.221 589.478 616.472 607.604C616.724 625.73 617.241 645.826 617.623 652.261C619.799 688.962 621.983 710.206 624.322 717.448C625.22 720.226 625.648 726.213 625.46 733.34L625.158 744.776L629.511 748.225C631.906 750.121 636.305 752.599 639.288 753.733C646.367 756.423 664.295 757.864 666.624 755.93C667.547 755.166 672.197 752.531 676.958 750.078C684.411 746.236 686.89 745.536 694.775 745.043C704.63 744.428 717.793 746.737 725.173 750.374C731.365 753.426 748.487 758.995 756.117 760.44C771.915 763.428 787.643 755.581 798.65 739.217C810.018 722.314 818.728 699.788 819.991 684.019C820.434 678.503 821.399 669.359 822.136 663.698C823.691 651.766 823.062 647.532 814.639 613.26C806.73 581.075 798.17 561.342 782.641 539.495C772.242 524.865 766.476 518.386 758.698 512.598C750.522 506.511 747.459 504.882 747.459 506.62C747.459 507.344 745.203 504.571 742.445 500.461C739.687 496.349 737.43 492.49 737.43 491.885C737.43 489.208 723.068 468.154 716.47 461.158C715.315 459.932 713.573 457.737 712.602 456.28C709.843 452.141 694.854 436.773 692.336 435.499C691.072 434.859 689.089 431.661 687.844 428.254C686.618 424.899 685.294 421.654 684.902 421.041C684.51 420.429 683.08 417.923 681.726 415.472C680.371 413.02 677.935 409.325 676.311 407.26C667.322 395.832 665.409 391.251 664.611 379.257C663.199 358.008 658.533 344.057 649.883 335.211C642.984 328.156 632.51 325.407 622.1 327.92ZM239.337 365.811C232.771 367.931 220.897 374.057 219.036 376.284C217.926 377.612 216.101 379.703 214.982 380.928C213.862 382.154 210.627 386.667 207.795 390.957C201.63 400.291 199.263 409.126 199.239 422.876C199.217 435.719 202.091 444.889 208.985 453.98C211.889 457.81 215.388 462.6 216.759 464.625C221.287 471.31 235.843 473.877 242.767 469.21C250.001 464.336 254.466 456.818 258.412 442.871C261.873 430.636 262.068 428.961 262.123 411.014C262.173 394.471 261.857 390.96 259.632 383.304C258.231 378.481 255.935 372.464 254.531 369.932C252.178 365.691 251.588 365.311 247.049 365.12C244.34 365.005 240.869 365.316 239.337 365.811ZM240.19 507.871C233.005 510.435 221.004 518.191 216.263 523.334C209.597 530.567 206.458 535.792 202.409 546.402C198.928 555.523 198.796 556.473 198.816 572.031C198.849 596.989 202.951 608.773 215.425 619.753C218.24 622.232 222.14 624.601 224.09 625.017C226.041 625.434 228.139 626.151 228.751 626.61C229.364 627.07 231.871 627.696 234.323 628.003C237.882 628.448 240.465 627.748 247.137 624.531C254.658 620.907 255.895 619.838 259.487 613.858C261.683 610.202 263.498 606.691 263.519 606.057C263.54 605.422 264.109 602.013 264.783 598.481C267.329 585.159 262.359 553.284 256.549 545.667C253.792 542.053 253.644 541.364 254.795 537.525C256.61 531.467 256.383 517.961 254.403 514.131C252.624 510.692 247.612 506.257 245.594 506.336C244.911 506.363 242.478 507.054 240.19 507.871ZM229.134 697.81C209.708 704.827 196.253 716.581 192.915 729.451C190.429 739.031 192.714 744.134 203.4 752.876C212.587 760.393 222.302 765.362 229.866 766.412C232.93 766.838 237.91 767.904 240.933 768.781C243.955 769.659 248.32 770.377 250.632 770.377C254.517 770.377 254.88 770.102 255.401 766.755C256.923 756.988 257.169 742.533 256.085 726.58C254.627 705.13 253.327 698.507 250.139 696.274C246.577 693.779 238.701 694.355 229.134 697.81Z" fill="#F1C1A2"/>
</mask>
<g mask="url(#mask5_2288_4999)">
<path d="M657.757 392.071C651.963 380.483 660.171 361.985 665 354.185L849.974 282.87L930.761 490.687L936.89 743.077L607.056 871.221C565.269 823.121 500.211 736.095 578.084 743.077C658.871 750.319 683.015 746.234 691.186 740.848C753.587 752.437 799.545 744.867 806.517 689.59C814.317 627.746 754.398 529.08 745.787 517.43C736.316 504.616 700.658 470.63 687.843 435.529C680.601 419.929 659.942 396.442 657.757 392.071Z" fill="#E7B598"/>
<path d="M655.524 404.435C653.14 400.058 655.655 381.758 657.211 373.155C659.575 376.975 663.747 384.633 661.52 384.711C659.292 384.79 656.594 397.893 655.524 404.435Z" fill="#E7B598"/>
<path d="M689.672 482.721C694.357 477.43 691.536 452.111 689.516 439.986C692.673 442.958 707.02 448.877 704.559 455.029C702.347 460.559 696.477 475.417 689.672 482.721C689.621 482.779 689.569 482.834 689.516 482.887C689.568 482.832 689.62 482.777 689.672 482.721Z" fill="#E7B598"/>
<path d="M605.406 447.511C580.904 429.03 589.228 373.128 596.471 349.17C585.148 365.196 560.634 397.937 570.88 431.902C581.127 465.867 626.01 492.673 647.171 501.83L624.328 476.758L605.406 447.511Z" fill="#E7B598"/>
</g>
<mask id="mask6_2288_4999" style="mask-type:alpha" maskUnits="userSpaceOnUse" x="667" y="450" width="936" height="492">
<path fill-rule="evenodd" clip-rule="evenodd" d="M1556.44 452.346C1551.85 453.168 1540.06 454.636 1530.26 455.611C1510.57 457.567 1495.66 460.629 1486.84 464.531C1483.66 465.939 1470.31 470.693 1457.18 475.098C1431.82 483.608 1423.32 487.774 1405.72 500.307C1394.02 508.639 1392.31 509.288 1388.57 506.832C1382.45 502.823 1353.21 496.662 1345.45 497.746C1339.61 498.563 1312.01 507.792 1308.46 510.115C1305.12 512.307 1303 512.315 1299.7 510.151C1298.26 509.21 1296.15 508.256 1295 508.031C1293.85 507.805 1289.65 507.005 1285.67 506.253C1281.68 505.501 1275.67 504.141 1272.3 503.233C1247.19 496.462 1245.81 496.285 1221.91 496.787C1208.78 497.062 1195.57 497.956 1190.39 498.917C1179.65 500.914 1166.59 502.442 1146.14 504.091C1129.43 505.439 1119.67 507.519 1105.1 512.831C1099.86 514.741 1094.34 516.336 1092.84 516.376C1088.01 516.504 1079.18 514.141 1073.61 511.228C1070.63 509.669 1067.6 508.592 1066.89 508.833C1066.18 509.074 1063.87 508.555 1061.77 507.679C1059.66 506.803 1052.89 504.537 1046.72 502.641C1035.85 499.302 1034.79 499.189 1012.44 499.003L989.369 498.812L985.138 495.129C982.81 493.103 979.863 490.397 978.589 489.116C968.41 478.883 953.119 473.69 922.405 470.031C908.953 468.43 903.262 468.288 888.419 469.182C878.613 469.774 861.815 470.351 851.089 470.467C822.315 470.776 803.441 472.508 789.246 476.143C782.504 477.871 771.723 480.403 765.288 481.772C758.853 483.14 751.727 485.205 749.454 486.359C747.18 487.514 744.326 488.459 743.112 488.459C741.898 488.459 740.59 488.968 740.205 489.591C739.82 490.214 739.039 490.435 738.468 490.082C735.895 488.492 737.865 493.633 742.445 500.461C745.203 504.571 747.459 507.344 747.459 506.621C747.459 504.882 750.522 506.511 758.698 512.598C774.75 524.545 795.255 555.121 805.862 582.919C809.594 592.699 818.082 625.464 821.592 643.641C823.218 652.064 823.293 654.821 822.137 663.698C821.399 669.359 820.434 678.503 819.991 684.019C818.728 699.788 810.018 722.314 798.65 739.217C787.643 755.581 771.915 763.428 756.117 760.44C748.487 758.996 731.365 753.426 725.173 750.374C718.228 746.952 704.741 744.477 695.409 744.914C687.845 745.269 685.477 745.944 676.98 750.166C671.618 752.831 667.229 755.635 667.229 756.396C667.229 758.017 679.295 772.235 686.319 778.89C694.063 786.228 710.122 797.974 717.098 801.403C720.62 803.134 726.156 806.138 729.401 808.078C732.646 810.018 735.779 811.606 736.365 811.606C736.951 811.606 737.431 812.016 737.431 812.517C737.431 813.854 754.511 822.015 764.174 825.296C771.953 827.936 781.337 829.335 794.817 829.862C807.441 830.357 852.525 826.38 868.322 823.379L876.083 821.905L881.646 827.351C887.772 833.351 916.232 852.741 922.405 855.122C926.589 856.736 948.971 868.079 950.819 869.523C953.207 871.389 972.391 878.384 979.791 880.088C984.081 881.075 991.374 882.866 995.998 884.067C1000.62 885.267 1009.15 886.979 1014.94 887.869C1020.74 888.758 1029.74 890.23 1034.95 891.137C1040.16 892.046 1047.93 893.095 1052.22 893.47C1075.95 895.543 1083.91 896.978 1112.95 904.418C1122.45 906.851 1132.91 909.294 1136.19 909.845C1139.48 910.397 1143.49 911.505 1145.11 912.306C1152.67 916.049 1171.55 921.78 1193.68 927.041C1200.39 928.638 1207.03 930.381 1208.43 930.917C1214.77 933.325 1245.59 937.76 1262.82 938.744C1273.24 939.338 1285.53 940.257 1290.12 940.785C1294.72 941.314 1305.5 941.544 1314.08 941.297C1351.62 940.214 1362.72 939.633 1365.41 938.611C1366.98 938.013 1370.73 937.522 1373.73 937.522C1387.08 937.522 1416.47 932.027 1427.25 927.512C1433.64 924.836 1439.32 925.226 1451.7 929.193C1467.27 934.181 1478.84 936.301 1496.09 937.326C1527.31 939.183 1554.13 937.814 1568.7 933.622C1572.07 932.652 1576.78 931.359 1579.17 930.748C1584.09 929.491 1602.17 919.745 1602.85 917.987C1603.1 917.354 1595.51 812.508 1586 684.996C1576.48 557.483 1568.7 452.574 1568.7 451.864C1568.7 450.333 1567.43 450.382 1556.44 452.346Z" fill="#5B8291"/>
</mask>
<g mask="url(#mask6_2288_4999)">
<path d="M826.018 681.79C840.281 524.45 744.302 476.572 694.53 472.301L594.8 703.519C665.929 761.834 811.754 839.129 826.018 681.79Z" fill="#53727E"/>
<path d="M740.773 493.473C904.798 459.152 980.348 504.616 992.605 526.902C995.391 506.844 978.12 460.229 971.991 443.886L713.473 485.673L740.773 493.473Z" fill="#53727E"/>
</g>
<g filter="url(#filter13_d_2288_4999)">
<ellipse cx="709" cy="360.001" rx="21.0002" ry="20.9998" fill="#CA3450"/>
</g>
<line x1="688" y1="360.501" x2="579" y2="360.501" stroke="black"/>
</g>
<defs>
<filter id="filter0_d_2288_4999" x="249.307" y="41.9995" width="391.003" height="803.994" filterUnits="userSpaceOnUse" color-interpolation-filters="sRGB">
<feFlood flood-opacity="0" result="BackgroundImageFix"/>
<feColorMatrix in="SourceAlpha" type="matrix" values="0 0 0 0 0 0 0 0 0 0 0 0 0 0 0 0 0 0 127 0" result="hardAlpha"/>
<feOffset dx="15" dy="20"/>
<feGaussianBlur stdDeviation="2"/>
<feComposite in2="hardAlpha" operator="out"/>
<feColorMatrix type="matrix" values="0 0 0 0 0 0 0 0 0 0 0 0 0 0 0 0 0 0 0.25 0"/>
<feBlend mode="normal" in2="BackgroundImageFix" result="effect1_dropShadow_2288_4999"/>
<feBlend mode="normal" in="SourceGraphic" in2="effect1_dropShadow_2288_4999" result="shape"/>
</filter>
<filter id="filter1_d_2288_4999" x="287.307" y="317.551" width="91" height="92.6729" filterUnits="userSpaceOnUse" color-interpolation-filters="sRGB">
<feFlood flood-opacity="0" result="BackgroundImageFix"/>
<feColorMatrix in="SourceAlpha" type="matrix" values="0 0 0 0 0 0 0 0 0 0 0 0 0 0 0 0 0 0 127 0" result="hardAlpha"/>
<feOffset dy="4"/>
<feGaussianBlur stdDeviation="2"/>
<feComposite in2="hardAlpha" operator="out"/>
<feColorMatrix type="matrix" values="0 0 0 0 0 0 0 0 0 0 0 0 0 0 0 0 0 0 0.25 0"/>
<feBlend mode="normal" in2="BackgroundImageFix" result="effect1_dropShadow_2288_4999"/>
<feBlend mode="normal" in="SourceGraphic" in2="effect1_dropShadow_2288_4999" result="shape"/>
</filter>
<filter id="filter2_d_2288_4999" x="492.307" y="317.551" width="91" height="92.6729" filterUnits="userSpaceOnUse" color-interpolation-filters="sRGB">
<feFlood flood-opacity="0" result="BackgroundImageFix"/>
<feColorMatrix in="SourceAlpha" type="matrix" values="0 0 0 0 0 0 0 0 0 0 0 0 0 0 0 0 0 0 127 0" result="hardAlpha"/>
<feOffset dy="4"/>
<feGaussianBlur stdDeviation="2"/>
<feComposite in2="hardAlpha" operator="out"/>
<feColorMatrix type="matrix" values="0 0 0 0 0 0 0 0 0 0 0 0 0 0 0 0 0 0 0.25 0"/>
<feBlend mode="normal" in2="BackgroundImageFix" result="effect1_dropShadow_2288_4999"/>
<feBlend mode="normal" in="SourceGraphic" in2="effect1_dropShadow_2288_4999" result="shape"/>
</filter>
<filter id="filter3_d_2288_4999" x="287.307" y="518.521" width="91" height="92.6729" filterUnits="userSpaceOnUse" color-interpolation-filters="sRGB">
<feFlood flood-opacity="0" result="BackgroundImageFix"/>
<feColorMatrix in="SourceAlpha" type="matrix" values="0 0 0 0 0 0 0 0 0 0 0 0 0 0 0 0 0 0 127 0" result="hardAlpha"/>
<feOffset dy="4"/>
<feGaussianBlur stdDeviation="2"/>
<feComposite in2="hardAlpha" operator="out"/>
<feColorMatrix type="matrix" values="0 0 0 0 0 0 0 0 0 0 0 0 0 0 0 0 0 0 0.25 0"/>
<feBlend mode="normal" in2="BackgroundImageFix" result="effect1_dropShadow_2288_4999"/>
<feBlend mode="normal" in="SourceGraphic" in2="effect1_dropShadow_2288_4999" result="shape"/>
</filter>
<filter id="filter4_d_2288_4999" x="287.307" y="111.48" width="91" height="90.6108" filterUnits="userSpaceOnUse" color-interpolation-filters="sRGB">
<feFlood flood-opacity="0" result="BackgroundImageFix"/>
<feColorMatrix in="SourceAlpha" type="matrix" values="0 0 0 0 0 0 0 0 0 0 0 0 0 0 0 0 0 0 127 0" result="hardAlpha"/>
<feOffset dy="4"/>
<feGaussianBlur stdDeviation="2"/>
<feComposite in2="hardAlpha" operator="out"/>
<feColorMatrix type="matrix" values="0 0 0 0 0 0 0 0 0 0 0 0 0 0 0 0 0 0 0.25 0"/>
<feBlend mode="normal" in2="BackgroundImageFix" result="effect1_dropShadow_2288_4999"/>
<feBlend mode="normal" in="SourceGraphic" in2="effect1_dropShadow_2288_4999" result="shape"/>
</filter>
<filter id="filter5_d_2288_4999" x="316.834" y="130.893" width="29.9746" height="55.0249" filterUnits="userSpaceOnUse" color-interpolation-filters="sRGB">
<feFlood flood-opacity="0" result="BackgroundImageFix"/>
<feColorMatrix in="SourceAlpha" type="matrix" values="0 0 0 0 0 0 0 0 0 0 0 0 0 0 0 0 0 0 127 0" result="hardAlpha"/>
<feOffset dy="4"/>
<feGaussianBlur stdDeviation="2"/>
<feComposite in2="hardAlpha" operator="out"/>
<feColorMatrix type="matrix" values="0 0 0 0 0 0 0 0 0 0 0 0 0 0 0 0 0 0 0.25 0"/>
<feBlend mode="normal" in2="BackgroundImageFix" result="effect1_dropShadow_2288_4999"/>
<feBlend mode="normal" in="SourceGraphic" in2="effect1_dropShadow_2288_4999" result="shape"/>
</filter>
<filter id="filter6_d_2288_4999" x="492.307" y="111.48" width="91" height="90.6108" filterUnits="userSpaceOnUse" color-interpolation-filters="sRGB">
<feFlood flood-opacity="0" result="BackgroundImageFix"/>
<feColorMatrix in="SourceAlpha" type="matrix" values="0 0 0 0 0 0 0 0 0 0 0 0 0 0 0 0 0 0 127 0" result="hardAlpha"/>
<feOffset dy="4"/>
<feGaussianBlur stdDeviation="2"/>
<feComposite in2="hardAlpha" operator="out"/>
<feColorMatrix type="matrix" values="0 0 0 0 0 0 0 0 0 0 0 0 0 0 0 0 0 0 0.25 0"/>
<feBlend mode="normal" in2="BackgroundImageFix" result="effect1_dropShadow_2288_4999"/>
<feBlend mode="normal" in="SourceGraphic" in2="effect1_dropShadow_2288_4999" result="shape"/>
</filter>
<filter id="filter7_d_2288_4999" x="496.308" y="115" width="83" height="83" filterUnits="userSpaceOnUse" color-interpolation-filters="sRGB">
<feFlood flood-opacity="0" result="BackgroundImageFix"/>
<feColorMatrix in="SourceAlpha" type="matrix" values="0 0 0 0 0 0 0 0 0 0 0 0 0 0 0 0 0 0 127 0" result="hardAlpha"/>
<feOffset dy="4"/>
<feGaussianBlur stdDeviation="2"/>
<feComposite in2="hardAlpha" operator="out"/>
<feColorMatrix type="matrix" values="0 0 0 0 0 0 0 0 0 0 0 0 0 0 0 0 0 0 0.25 0"/>
<feBlend mode="normal" in2="BackgroundImageFix" result="effect1_dropShadow_2288_4999"/>
<feBlend mode="normal" in="SourceGraphic" in2="effect1_dropShadow_2288_4999" result="shape"/>
</filter>
<filter id="filter8_d_2288_4999" x="21.292" y="538.187" width="48.6455" height="47.7627" filterUnits="userSpaceOnUse" color-interpolation-filters="sRGB">
<feFlood flood-opacity="0" result="BackgroundImageFix"/>
<feColorMatrix in="SourceAlpha" type="matrix" values="0 0 0 0 0 0 0 0 0 0 0 0 0 0 0 0 0 0 127 0" result="hardAlpha"/>
<feOffset dx="3" dy="4"/>
<feGaussianBlur stdDeviation="2"/>
<feComposite in2="hardAlpha" operator="out"/>
<feColorMatrix type="matrix" values="0 0 0 0 0 0 0 0 0 0 0 0 0 0 0 0 0 0 0.25 0"/>
<feBlend mode="normal" in2="BackgroundImageFix" result="effect1_dropShadow_2288_4999"/>
<feBlend mode="normal" in="SourceGraphic" in2="effect1_dropShadow_2288_4999" result="shape"/>
</filter>
<filter id="filter9_d_2288_4999" x="684.308" y="127.935" width="49.8281" height="49.1006" filterUnits="userSpaceOnUse" color-interpolation-filters="sRGB">
<feFlood flood-opacity="0" result="BackgroundImageFix"/>
<feColorMatrix in="SourceAlpha" type="matrix" values="0 0 0 0 0 0 0 0 0 0 0 0 0 0 0 0 0 0 127 0" result="hardAlpha"/>
<feOffset dx="3" dy="4"/>
<feGaussianBlur stdDeviation="2"/>
<feComposite in2="hardAlpha" operator="out"/>
<feColorMatrix type="matrix" values="0 0 0 0 0 0 0 0 0 0 0 0 0 0 0 0 0 0 0.25 0"/>
<feBlend mode="normal" in2="BackgroundImageFix" result="effect1_dropShadow_2288_4999"/>
<feBlend mode="normal" in="SourceGraphic" in2="effect1_dropShadow_2288_4999" result="shape"/>
</filter>
<filter id="filter10_d_2288_4999" x="687.308" y="339" width="50" height="49.9995" filterUnits="userSpaceOnUse" color-interpolation-filters="sRGB">
<feFlood flood-opacity="0" result="BackgroundImageFix"/>
<feColorMatrix in="SourceAlpha" type="matrix" values="0 0 0 0 0 0 0 0 0 0 0 0 0 0 0 0 0 0 127 0" result="hardAlpha"/>
<feOffset dx="3" dy="4"/>
<feGaussianBlur stdDeviation="2"/>
<feComposite in2="hardAlpha" operator="out"/>
<feColorMatrix type="matrix" values="0 0 0 0 0 0 0 0 0 0 0 0 0 0 0 0 0 0 0.25 0"/>
<feBlend mode="normal" in2="BackgroundImageFix" result="effect1_dropShadow_2288_4999"/>
<feBlend mode="normal" in="SourceGraphic" in2="effect1_dropShadow_2288_4999" result="shape"/>
</filter>
<filter id="filter11_d_2288_4999" x="79.3076" y="335.425" width="50" height="49.1006" filterUnits="userSpaceOnUse" color-interpolation-filters="sRGB">
<feFlood flood-opacity="0" result="BackgroundImageFix"/>
<feColorMatrix in="SourceAlpha" type="matrix" values="0 0 0 0 0 0 0 0 0 0 0 0 0 0 0 0 0 0 127 0" result="hardAlpha"/>
<feOffset dx="3" dy="4"/>
<feGaussianBlur stdDeviation="2"/>
<feComposite in2="hardAlpha" operator="out"/>
<feColorMatrix type="matrix" values="0 0 0 0 0 0 0 0 0 0 0 0 0 0 0 0 0 0 0.25 0"/>
<feBlend mode="normal" in2="BackgroundImageFix" result="effect1_dropShadow_2288_4999"/>
<feBlend mode="normal" in="SourceGraphic" in2="effect1_dropShadow_2288_4999" result="shape"/>
</filter>
<filter id="filter12_d_2288_4999" x="82.3096" y="126.317" width="49.3701" height="49.1006" filterUnits="userSpaceOnUse" color-interpolation-filters="sRGB">
<feFlood flood-opacity="0" result="BackgroundImageFix"/>
<feColorMatrix in="SourceAlpha" type="matrix" values="0 0 0 0 0 0 0 0 0 0 0 0 0 0 0 0 0 0 127 0" result="hardAlpha"/>
<feOffset dx="3" dy="4"/>
<feGaussianBlur stdDeviation="2"/>
<feComposite in2="hardAlpha" operator="out"/>
<feColorMatrix type="matrix" values="0 0 0 0 0 0 0 0 0 0 0 0 0 0 0 0 0 0 0.25 0"/>
<feBlend mode="normal" in2="BackgroundImageFix" result="effect1_dropShadow_2288_4999"/>
<feBlend mode="normal" in="SourceGraphic" in2="effect1_dropShadow_2288_4999" result="shape"/>
</filter>
<filter id="filter13_d_2288_4999" x="687" y="339.001" width="50" height="49.9995" filterUnits="userSpaceOnUse" color-interpolation-filters="sRGB">
<feFlood flood-opacity="0" result="BackgroundImageFix"/>
<feColorMatrix in="SourceAlpha" type="matrix" values="0 0 0 0 0 0 0 0 0 0 0 0 0 0 0 0 0 0 127 0" result="hardAlpha"/>
<feOffset dx="3" dy="4"/>
<feGaussianBlur stdDeviation="2"/>
<feComposite in2="hardAlpha" operator="out"/>
<feColorMatrix type="matrix" values="0 0 0 0 0 0 0 0 0 0 0 0 0 0 0 0 0 0 0.25 0"/>
<feBlend mode="normal" in2="BackgroundImageFix" result="effect1_dropShadow_2288_4999"/>
<feBlend mode="normal" in="SourceGraphic" in2="effect1_dropShadow_2288_4999" result="shape"/>
</filter>
<clipPath id="clip0_2288_4999">
<rect width="64" height="64" fill="white" transform="translate(299.308 327)"/>
</clipPath>
</defs>
</svg>
